<svg id="b90c7bb8-f498-40c4-869b-58bb72a10db7" data-name="b1afc493-5b51-428b-b4ae-62ef7a4815bc" xmlns="http://www.w3.org/2000/svg" viewBox="0 0 1080 1080"><defs><style>.a887dfab-f63b-4f1d-97d1-f5593a72f35e{fill:#fff;}.b79c3130-efa9-408a-83a7-a1853c25b26f{fill:#0e0ee2;}.a4a1539f-5338-4660-a95c-8534d4e6f8f5{fill:#f4003a;}</style></defs><title>01 - skeleton - logoweb</title><path class="a887dfab-f63b-4f1d-97d1-f5593a72f35e" d="M378.347,215.488H780.034c3.23,0,3.981.676,3.981,3.906-.15,24.636-.075,49.347-.15,74.058-.076,2.779.751,3.229,3.3,3.229H861.9c2.328,0,3.154.376,3.154,3q-.15,159.233,0,318.39c0,2.4-.526,3.155-3.079,3.155-24.862-.151-49.8,0-74.735-.151-2.779,0-3.379.676-3.379,3.455l.15,236.3c0,3.155-.9,3.756-3.831,3.681q-37.029-.15-74.133,0c-2.554,0-3.305-.451-3.305-3.155.075-24.936,0-49.873.15-74.809,0-2.629-.6-3.305-3.3-3.23-24.936.075-49.8.075-74.734,0-2.7-.075-3.229.676-3.229,3.3.075,24.861,0,49.8.075,74.734.075,2.329-.376,3.155-3,3.155q-37.479-.15-75.034,0c-2.479,0-3.155-.526-3.155-3.08.15-25.011,0-50.023.15-75.034,0-2.554-.751-3.08-3.154-3.08H459.616c-.075-1.277-.15-2.553-.15-3.83q0-37.1.075-74.058c0-2.7-.676-3.3-3.305-3.3-25.988.075-51.9,0-77.889,0h.075c0-25.838-.075-51.751,0-77.589,0-2.854-.751-3.605-3.605-3.605H297.3V296.456h77.138c3.079.075,4.055-.526,4.055-3.83C378.272,266.938,378.347,241.25,378.347,215.488ZM783.789,458.693c.076-1.051.076-2.1.076-3.155.075-24.786,0-49.647.075-74.433.075-2.854-.676-3.606-3.531-3.606q-77.587.226-155.176,0c-2.929,0-3.6.752-3.6,3.606q.075,77.662.075,155.176a11.23,11.23,0,0,1,0,1.578c-.226,1.577.375,2.028,1.952,1.953s4.207,0,6.31,0h86.751c21.482,0,42.888-.076,64.294.075,2.4,0,3.155-.6,2.93-2.93s0-5.933,0-8.863C783.865,504.961,783.865,481.827,783.789,458.693ZM459.466,539.736h13.97c21.406,0,42.813-.075,64.294.076,2.328,0,3.08-.6,2.929-2.93s-.075-5.933-.075-8.863c0-23.133-.075-46.267-.075-69.4,0-1.052.075-2.1.075-3.155,0-24.786-.075-49.647.075-74.433,0-2.855-.676-3.606-3.605-3.606q-77.512.226-155.177,0c-2.854,0-3.605.751-3.605,3.606.15,51.75.075,103.5.075,155.176a10.936,10.936,0,0,1,0,1.578c-.225,1.577.451,2.028,1.953,1.952s4.206,0,6.309,0ZM581.219,620.93c-12.544,0-25.162.075-37.706-.075-2.253,0-3,.376-3,2.854.15,25.162.075,50.249,0,75.41,0,2.178.376,3,2.854,3,25.162-.151,50.249-.151,75.41-.075,2.254,0,3-.376,3-2.855-.15-25.086-.15-50.248,0-75.335,0-2.7-.9-3-3.23-3C606.08,621.005,593.687,620.93,581.219,620.93Z"/><path class="b79c3130-efa9-408a-83a7-a1853c25b26f" d="M297.3,296.456V620.93c-25.913,0-51.751-.075-77.588.075-2.93,0-3.606-.751-3.606-3.68q.075-158.633,0-317.264c0-2.854.676-3.68,3.606-3.6Z"/><path class="a887dfab-f63b-4f1d-97d1-f5593a72f35e" d="M378.347,701.973c25.988,0,51.9.076,77.889,0,2.629,0,3.305.6,3.305,3.305q-.15,36.954-.075,74.058c0,1.277.075,2.554.15,3.831-.075,23.584-.075,47.244-.15,70.9,0,2.478-.151,5.032.075,7.586s-.6,2.629-2.7,2.629H420.183c-12.618,0-25.161.075-37.7,0-4.732,0-4.131.676-4.131-4.207Z"/><path class="a887dfab-f63b-4f1d-97d1-f5593a72f35e" d="M378.347,215.488c0,25.762-.075,51.45.15,77.213,0,3.3-.976,3.9-4.055,3.83H297.229c0-25.988.075-51.976,0-77.889,0-2.628.6-3.3,3.229-3.3C326.446,215.488,352.434,215.488,378.347,215.488Z"/><path class="a887dfab-f63b-4f1d-97d1-f5593a72f35e" d="M297.229,620.93h77.588c2.854,0,3.605.751,3.605,3.605-.075,25.838,0,51.751,0,77.589-25.913,0-51.75-.075-77.588.075-2.929,0-3.68-.751-3.605-3.681C297.3,672.606,297.229,646.768,297.229,620.93Z"/><path class="a4a1539f-5338-4660-a95c-8534d4e6f8f5" d="M378.347,497.675c0-25.988.075-51.9-.075-77.814,0-2.628.676-3.3,3.305-3.3,25.913.15,51.826.075,77.814.075,0,23.133.075,46.267.075,69.4,0,2.929-.151,5.859.075,8.863s-.6,2.929-2.929,2.929c-21.482-.15-42.888-.075-64.294-.075Z"/><path class="a4a1539f-5338-4660-a95c-8534d4e6f8f5" d="M622.454,497.675q0-38.982-.075-77.814c0-2.628.6-3.3,3.229-3.3,25.988.15,51.9.075,77.814.075.075,23.133.075,46.192.15,69.4,0,2.929-.225,5.859,0,8.863s-.526,2.929-2.929,2.929c-21.406-.15-42.813-.075-64.294-.075Z"/></svg>