<?xml version="1.0" encoding="UTF-8"?>
<svg id="Layer_1" data-name="Layer 1" xmlns="http://www.w3.org/2000/svg" viewBox="0 0 1920 810.1673">
  <defs>
    <style>
      .cls-1 {
        fill: #0d3cee;
      }

      .cls-1, .cls-2, .cls-3, .cls-4, .cls-5, .cls-6, .cls-7 {
        stroke-width: 0px;
      }

      .cls-2 {
        fill: #3cb3e8;
      }

      .cls-3 {
        fill: #dd4719;
      }

      .cls-4 {
        fill: #010101;
      }

      .cls-5 {
        fill: #e99a54;
      }

      .cls-6 {
        fill: #dd7635;
      }

      .cls-7 {
        fill: #fefefe;
      }
    </style>
  </defs>
  <path class="cls-7" d="M417.9699,225.1387c-19.8442-.088-39.6884-.176-59.5325-.2641-.5601.0274-1.1201.0549-1.6801.0823-1.2584-2.6198-.1015-5.1243.4211-7.6339,4.1268-19.8185,8.2889-39.6296,12.44-59.443.0015-.3921.0031-.7843.0046-1.1764,2.6211-7.9238,4.0774-16.1067,5.4174-24.3155.4378-1.8304.8756-3.6607,1.3134-5.4911.6144-3.1682,1.2288-6.3364,1.8432-9.5047,3.2238-15.3791,6.4476-30.7582,9.8458-46.9696-16.9908,0-33.2125.0035-49.4342-.0007-30.649-.0079-61.2981-.0239-91.9471-.0237-2.3805,0-4.7763-.553-5.858,2.8494-2.8983,9.117-6.0601,18.1536-9.268,27.1685-5.4765,15.3903-9.6178,31.3003-16.8696,46.0065-24.0318,48.735-62.8742,75.4991-117.5698,78.2693-3.5678.1807-4.757,1.3102-5.4585,4.7412-5.8166,28.4485-11.8701,56.8485-17.8284,85.2681-1.6474,7.8576-3.2155,15.7318-4.907,24.025,12.634,1.6749,24.5603,3.2559,36.4866,4.8369,16.3988,2.2343,32.7976,4.4686,49.6661,6.7669-5.8245,27.345-11.5069,54.023-17.1892,80.701-.1088.4041-.2175.8081-.3263,1.2122-.2536,1.2958-.5002,2.593-.7617,3.8872-3.0164,14.9237-7.0312,29.6423-9.2039,44.7393-.1556.4533-.3112.9067-.4668,1.36-2.0696,2.044-1.2735,4.874-1.7588,7.2788-2.3319,11.5568-5.7421,22.9008-7.0255,34.6666-1.0192,1.3649-1.1873,2.9709-1.3032,4.5917-.8161,2.9423-2.1543,5.8162-1.1803,8.9931l-2.0886,6.9442c-4.7447,25.9618-6.6374,52.027-2.6259,78.2738,4.6576,30.4736,17.0472,56.9775,40.7012,77.4319,4.8405,4.1857,9.4006,9.1044,16.0851,10.6412,10.4772,8.2732,22.8275,13.1086,35.169,17.2482,28.6961,9.6255,58.5415,11.9361,88.6534,11.4397,42.4072-1.2921,84.0874-7.693,125.1897-17.993,10.7733-2.6997,9.2036-.1697,10.1723-11.8304.2808-3.3805.6843-6.7508,1.0301-10.1259,1.0329-10.08,2.065-20.1599,3.0974-30.2399,2.7927-27.1241,5.5854-54.2482,8.3593-81.1908-2.8293-1.1015-4.697.0759-6.6397.6265-29.0002,8.2191-58.3321,14.1862-88.6927,11.1426-22.6802-2.2738-42.3354-9.8414-51.9398-32.9489-3.1249-10.4822-3.9906-21.1718-2.0928-31.9225,5.4424-30.8313,12.8895-61.25,19.2139-91.901,3.9613-19.1982,7.9809-38.3843,11.9744-57.5759,2.7361-11.6544,5.4722-23.3087,8.3039-35.3702,28.648,0,57.1123,0,85.5767,0,2.4057-.0801,4.8114-.1602,7.2171-.2403,4.3831.0044,8.7663.0089,13.1495.0134h46.7363c8.6719-41.6259,17.2955-83.0193,26.076-125.1663h-18.9535c-.415-.0316-.83-.0631-1.245-.0946-13.187.09-26.3741.18-39.5617.2693-10.245-.0175-20.4899-.035-30.7349-.0525Z"/>
  <path class="cls-2" d="M105.3889,343.5634c-11.9263-1.581-23.8526-3.1621-36.4866-4.8369,1.6915-8.2932,3.2596-16.1674,4.907-24.025,5.9583-28.4196,12.0118-56.8197,17.8284-85.2681.7015-3.4309,1.8907-4.5605,5.4585-4.7412,54.6956-2.7702,93.538-29.5343,117.5698-78.2693,7.2518-14.7062,11.3931-30.6162,16.8696-46.0065,3.2079-9.0149,6.3697-18.0515,9.268-27.1685,1.0816-3.4024,3.4775-2.8494,5.858-2.8494,30.649-.0002,61.298.0158,91.9471.0237,16.2217.0042,32.4434.0007,49.4342.0007-3.3982,16.2113-6.622,31.5904-9.8447,46.9726-5.0571,2.619-7.8164,7.5195-11.3303,11.6162-10.7179,12.4954-19.801,26.1939-26.9934,40.9355-8.8676,18.1751-11.2799,37.756-10.1385,57.8217.052.9144.587,1.9633-.2461,2.6455-3.5241,2.8856-1.9158,6.1182-.4143,9.0436,1.907,3.7158,3.3494,7.5598,4.5598,11.5306,5.1012,16.7358,13.3161,31.8591,26.1118,43.7758,19.2037,17.8844,36.9993,37.1262,55.5391,55.6453h-85.5767c-2.8317,12.0615-5.5678,23.7158-8.3039,35.369-2.0522-1.9448-4.2106-3.7889-6.1398-5.8476-16.7806-17.907-36.8571-30.9413-59.3328-40.5601-13.4689-5.7641-27.592-8.3869-41.9533-10.9567-19.7627-3.5364-39.4276-4.2794-59.1133-1.5195-17.4089,2.4407-34.1595,7.635-49.4775,16.6685ZM327.5645,230.0166c.74-.6237.5368-1.2524.0104-1.883-.7149.6238-.5653,1.2523-.0104,1.883Z"/>
  <path class="cls-1" d="M105.3889,343.5634c15.318-9.0334,32.0686-14.2278,49.4775-16.6685,19.6857-2.7599,39.3506-2.0169,59.1133,1.5195,14.3613,2.5698,28.4844,5.1925,41.9533,10.9567,22.4757,9.6187,42.5522,22.6531,59.3328,40.5601,1.9292,2.0587,4.0877,3.9028,6.1398,5.8476-3.9935,19.1927-8.0132,38.3789-11.9744,57.5771-6.3244,30.651-13.7715,61.0697-19.2139,91.901-1.8977,10.7507-1.032,21.4403,2.0936,31.9243-3.4306,2.1055-6.0061,5.0938-8.4706,8.1946-6.7518,8.4956-12.7086,17.4705-21.5193,24.4213-8.3642,6.5986-16.5535,14.1229-22.2532,23.1555-5.9462,9.4232-12.9259,17.4783-21.2479,24.7244-6.8147,5.9337-14.3315,11.7055-18.4558,19.7607-6.1343,11.9809-14.4316,22.0319-23.9711,31.1842-3.7846,3.631-6.7161,7.5608-8.4819,12.4294-6.6844-1.5368-11.2446-6.4555-16.0851-10.6412-23.654-20.4545-36.0436-46.9583-40.7012-77.4319-4.0116-26.2468-2.1188-52.312,2.6254-78.2727,7.9346,1.7924,15.4441,4.7897,22.4176,8.8733,4.4483,2.6049,8.5304,2.9021,14.1176.0501-11.2649-7.0972-22.0378-13.1538-34.4462-15.8688-.974-3.1769.3642-6.0508,1.1799-8.9922,14.1025,4.1938,26.6799,11.4227,38.1287,20.392,4.8104,3.7686,8.8614,3.6742,14.8463,1.0102-15.6984-12.9124-32.4749-21.7781-51.6714-25.9949,1.2834-11.7658,4.6936-23.1098,7.0255-34.6666.4853-2.4049-.3108-5.2348,1.7582-7.2788,7.1121,3.1288,14.9026,3.7913,22.2415,6.13,27.7153,8.8319,48.8596,27.0823,68.485,47.5193,1.9164,1.9957,3.379,4.7506,7.3009,2.0135-1.3407-1.9-2.5107-3.7756-3.8922-5.48-8.1162-10.013-17.3623-18.8834-27.6553-26.6249-19.5631-14.7138-41.0454-24.4499-66.0125-24.918,2.1727-15.097,6.1875-29.8156,9.2039-44.7393.2616-1.2942.5082-2.5914.7615-3.8854,5.9304.0018,11.8611.0018,17.7918.0018-.0025-.4052-.005-.8104-.0075-1.2157h-17.4578c5.6824-26.678,11.3648-53.356,17.1892-80.701-16.8685-2.2983-33.2673-4.5326-49.6661-6.7669ZM168.0947,534.2449c-.7683-1.0281-1.5116-2.1883-2.8649-.6689.4761,1.2392,1.5519,1.0359,2.3681,1.3319.5878,1.7353,1.8442,2.3175,3.7238,2.5736-.4812-2.1894-2.0368-2.5076-3.2271-3.2367ZM173.8931,538.6793c-.3998-.1413-.7996-.2827-1.1994-.4241.1861.3628.3722.7256.5583,1.0884.6103,1.5937,1.3891,2.9579,3.5646,2.6311.2121-2.2536-1.3854-2.7485-2.9236-3.2954ZM184.0973,548.1687c-1.0631-2.8555-2.1795-4.1946-4.8718-4.5404.5574,2.5845,1.7892,3.7639,4.8718,4.5404Z"/>
  <path class="cls-4" d="M1659.759,452.3788c-16.1277,18.9885-35.883,28.9541-59.98,28.3676-25.4359-.6191-46.5502-9.5468-57.6185-34.5621-3.2853-7.4252-4.847-15.33-5.6492-23.682-2.1716.559-2.3436,2.2015-2.983,3.3633-19.1222,34.7434-49.3753,51.7425-88.1136,55.2334-14.2612,1.2851-28.3268.3579-42.0358-3.9985-30.86-9.8066-49.3537-32.9845-50.7962-66.2809-1.1941-27.5628,5.1612-53.7245,21.067-76.7722,16.9893-24.6175,41.6652-37.0066,70.3665-42.4896,15.9536-3.0477,31.9409-3.3218,47.9279-.284,34.9642,6.6435,53.253,26.0414,57.95,61.4275,1.3786-.1873,1.6279-1.4229,2.1512-2.3503,18.6762-33.1017,47.6647-51.4305,84.5144-57.4891,35.9496-5.9106,70.752-.6368,104.2852,13.3831.6846.2862,1.3307.6639,2.5165,1.2619-2.5861,12.2762-5.144,24.5762-7.772,36.8613-5.446,25.4603-10.9313,50.9122-16.3906,76.3697-.1974.9203-.3094,1.8604-.4308,2.7952-1.7964,13.8231.9169,17.392,15.0139,19.1455,1.3525,11.9123,4.165,23.5141,13.6149,33.4609-24.0389,4.1808-47.1387,6.9639-70.1797.2131-12.4882-3.6589-17.1481-10.5275-17.4582-23.9738ZM1544.4431,366.3055h-55.1361c-5.3134-17.1504-17.5837-23.9838-34.6477-19.7517-25.8924,6.4216-41.934,34.432-34.4115,60.0861,3.2144,10.9623,11.4679,18.0649,22.8262,19.077,12.0856,1.0769,23.7164-2.2961,30.0861-12.2814,6.8368-10.7173,15.4323-11.7086,26.0408-10.7529,4.1315.3722,8.3248.0609,12.49.0609h24.99c.6778-12.7263,3.7292-24.3425,7.7623-36.4379ZM1673.7311,344.9831c-10.2477-2.8912-19.9172-3.7804-29.7327-1.9367-31.7825,5.9696-45.274,42.6941-41.9466,62.9211,1.4523,8.8286,6.4837,14.9159,15.3843,16.8602,10.4959,2.2928,20.2672.5506,28.6573-6.7001,7.9873-6.9027,12.9048-15.8156,15.7442-25.7061,4.2615-14.8446,7.8577-29.88,11.8935-45.4384Z"/>
  <path class="cls-4" d="M795.7518,477.6948h-63.5832c8.721-45.8883,20.0306-90.9699,28.4967-137.1737h-68.6997c-4.745,22.9295-9.8147,45.5295-13.9777,68.295-2.2953,12.5514,4.512,20.5196,17.2737,22.414,12.4571,1.8493,24.3575-1.0958,37.0209-4.3916-2.3468,11.6442-5.6644,22.7556-6.5774,34.061-1.0196,12.6239-7.0226,17.2717-19.029,18.8777-21.2791,2.8464-42.3746,6.0753-63.3913-.9296-18.7964-6.2648-28.8619-19.5782-31.3073-39.076-2.2683-18.0857,2.8047-35.2262,6.4074-52.5581,3.1846-15.3205,6.5625-30.601,9.9868-46.5112-10.4676-1.4453-20.6334-2.849-31.4031-4.336,2.9184-13.8951,5.7703-27.4736,8.6562-41.2135,20.8999-1.4421,36.4475-10.8486,45.0052-30.1889,2.808-6.346,4.6393-13.1223,6.9454-19.6919.8052-2.2938,1.6951-4.558,2.5099-6.7382h53.6202c-4.0224,18.8611-7.976,37.3997-12.054,56.5209,22.7777-1.0912,45.0739,1.6855,67.2483-2.7909,12.8257-2.5892,25.934-2.8967,38.8385.3358,13.4533,3.37,19.0162,9.8705,20.464,24.3636,15.191-20.6041,35.7131-28.9578,60.2553-27.6216,11.4913.6256,22.0257,4.593,31.2621,12.6298-15.2064,12.4244-26.4343,27.3388-33.9862,45.1908-.8563-.0807-1.6098-.0237-2.2798-.2332-32.6392-10.2024-61.936,7.343-68.9203,41.1566-6.1411,29.7312-12.449,59.4281-18.7816,89.6089Z"/>
  <path class="cls-4" d="M1110.6348,570.7744h-60.1805c2.1361-10.3516,4.1621-20.4149,6.2931-30.4559,11.5534-54.4355,24.0272-108.6967,34.3577-163.3625,5.9058-31.2519-6.4577-56.94-31.7898-76.2128-1.1908-.906-2.4764-1.6875-4.2278-2.8719,4.5034-2.2652,9.0959-2.6182,13.4669-3.5907,4.4185-.9831,8.9113-1.7196,13.4088-2.2467,17.0015-1.9926,33.8899-2.3506,50.319,3.7332,10.9163,4.0424,19.3436,10.8389,24.7545,21.9719,7.9141-9.5926,17.111-17.1767,28.2121-22.412,27.2014-12.8282,61.6779-6.3481,79.3142,15.1756,9.4255,11.5032,14.0315,25.1013,14.9783,39.6332,3.2152,49.346-13.6196,89.9217-55.4374,117.7947-20.1563,13.4349-43.1235,16.6212-66.8366,9.8149-10.3301-2.965-18.1281-9.0961-22.2553-21.0379-8.2904,38.7927-16.2971,76.2576-24.3773,114.0671ZM1217.771,372.2486c0-2.2659.1714-4.5471-.0286-6.7953-1.0976-12.3466-9.159-19.974-21.4993-20.4042-13.7393-.479-24.5976,5.056-32.4919,16.1486-9.3516,13.1402-12.8873,28.0493-11.6566,43.9324,1.0876,14.0384,9.5774,21.8925,22.1911,21.2204,10.3413-.551,19.5125-4.173,26.971-11.5416,11.8523-11.7092,16.2989-26.3425,16.5143-42.5603Z"/>
  <path class="cls-4" d="M1081.4703,386.7685c-.6538,16.6948-10.3569,45.138-34.8999,67.0493-21.5753,19.2618-47.5806,27.0958-75.9666,28.1824-13.3073.5094-26.4073-.7759-39.1126-5.162-27.7789-9.5901-44.8953-28.8352-48.4474-57.8344-4.3619-35.6107,3.4463-68.5073,28.6568-95.5184,18.1338-19.4289,41.2074-29.5102,67.2779-33.1232,17.2686-2.3931,34.3831-1.717,51.0271,3.8402,34.9892,11.6825,53.212,38.8912,51.4647,92.566ZM1017.7506,378.3474c.0893-19.1421-7.5622-29.6508-21.9749-32.004-6.367-1.0396-12.7872-.5684-19.0328,1.4369-27.3672,8.787-36.1715,38.5016-30.9419,58.6954,2.3705,9.1534,8.5975,14.9917,17.5659,17.5389,19.4638,5.5283,40.0308-4.0139,48.7486-22.3727,3.8643-8.1379,5.4379-16.7918,5.6352-23.2945Z"/>
  <path class="cls-2" d="M167.911,711.0512c1.7659-4.8686,4.6973-8.7984,8.4819-12.4294,9.5396-9.1524,17.8368-19.2033,23.9711-31.1842,4.1244-8.0552,11.6411-13.827,18.4558-19.7607,8.322-7.2461,15.3016-15.3012,21.2479-24.7244,5.6997-9.0326,13.889-16.557,22.2532-23.1555,8.8107-6.9507,14.7675-15.9257,21.5193-24.4213,2.4645-3.1009,5.0399-6.0892,8.4706-8.1946,9.6037,23.1057,29.259,30.6734,51.9391,32.9472,30.3607,3.0436,59.6926-2.9235,88.6927-11.1426,1.9427-.5506,3.8104-1.728,6.6397-.6265-2.774,26.9426-5.5667,54.0667-8.3593,81.1919-13.1707-.0393-25.7633,3.1299-38.1012,7.2752-18.7658,6.3048-37.213,13.5672-54.228,23.73-17.6923,10.5673-33.4847,23.6653-47.1605,39.183-30.112.4964-59.9573-1.8142-88.6534-11.4397-12.3416-4.1397-24.6918-8.975-35.169-17.2482Z"/>
  <path class="cls-4" d="M1833.7506,431.186c-2.8575,16.5397-5.5801,32.2991-8.3751,48.4774-17.1602,2.9792-34.4011,4.8845-51.6585,1.0156-20.6195-4.6226-32.0173-18.9169-33.4261-40.2237-1.2309-18.6178,3.426-36.388,7.21-54.2747,12.6926-59.9976,25.5612-119.9581,38.3722-179.9307.3876-1.8141.883-3.6051,1.3666-5.563h63.8581c-2.3393,11.0545-4.6097,21.8332-6.9021,32.6073-12.3716,58.1428-24.8492,116.2634-37.0696,174.4379-4.3498,20.7078,2.5624,27.5863,23.4547,24.1621.7381-.121,1.4629-.3238,3.1699-.7081Z"/>
  <path class="cls-4" d="M1665.9022,559.1054c9.3421-33.6625,37.0466-45.5437,65.3795-41.4369,28.7774,4.1712,46.9817,27.1889,46.7506,58.251-.2057,27.6603-19.1934,50.1422-45.5426,53.9231-34.9686,5.0176-56.3771-9.5217-67.824-46.2129h-83.2696c.1094,8.5753,6.1474,16.5641,15.9198,19.946,15.9489,5.5195,30.8486,2.8338,45.1994-7.1971,5.1753,5.8736,10.4955,11.9117,15.9654,18.1195-9.3089,9.3426-22.0241,14.2998-35.9608,16.0131-15.8891,1.9534-31.4187.3768-45.3777-8.3679-17.9534-11.2472-24.3938-28.5801-24.8004-48.7439-.5878-29.1477,16.8156-50.9452,45.3876-56.4142,13.4002-2.565,26.8047-1.6216,39.4815,3.8887,14.5698,6.333,22.9576,17.9112,26.8447,33.0274.4595,1.787.1677,3.8384,1.8468,5.204ZM1750.6173,574.6645c.2288-14.1338-7.6556-26.7986-19.3592-31.0969-19.8727-7.2986-39.0117,6.992-39.571,29.5464-.3886,15.6703,8.65,28.6675,22.0492,31.7062,20.2432,4.5908,36.5341-8.7294,36.881-30.1557ZM1639.0014,560.5198c-1.2689-12.0915-10.6477-19.821-24.5409-20.4112-17.4238-.7402-29.9578,7.0737-32.6629,20.4112h57.2038Z"/>
  <path class="cls-4" d="M1195.7918,612.7325c4.6541-6.7481,8.9347-12.9547,13.421-19.4593,10.9386,9.3216,23.4944,14.2656,37.6632,15.0276,4.434.2385,8.677-.6421,12.576-2.7628,4.4325-2.4108,7.5967-5.8509,7.0326-11.2783-.5675-5.4624-4.8383-7.6252-9.4004-8.4463-8.5417-1.5374-17.2237-2.2821-25.7897-3.7027-6.7579-1.1207-13.0618-3.6808-18.7708-7.5419-16.2213-10.9708-17.2818-34.8453-2.2064-47.3923,6.4424-5.3618,13.9196-8.4036,22.0079-9.7568,18.199-3.0447,35.7586-1.7799,52.1045,9.5089.1975-2.6155.3575-4.7335.5478-7.2536h19.7387v-28.2913c9.3232-1.0055,18.0758-1.9496,27.3402-2.9488v30.8249h29.8629v23.4622h-29.6281v14.8964c0,10.4043-.0183,20.8086.0047,31.2128.0286,12.8676,7.4445,18.5673,19.9477,15.3245,2.181-.5657,4.3163-1.3065,7.0278-2.1364,1.2671,3.75,2.5323,7.425,3.7496,11.1158,1.2363,3.749,2.425,7.5135,3.6266,11.246-18.7019,11.0487-46.6126,5.5632-56.185-10.987-4.4053-7.6164-5.4477-15.9973-5.4488-24.5977-.0017-13.2418.0214-26.4837-.0258-39.7253-.0065-1.8461.474-3.7721-.7032-5.9679h-19.2395c-.1678-2.4192-.3077-4.4364-.5187-7.4784-3.9267,4.4751-7.3954,8.4285-11.2026,12.7675-9.3201-8.8471-20.6771-10.4512-32.7083-9.4085-8.4697.734-13.6651,4.5187-13.9336,9.9255-.2842,5.72,3.8476,9.6504,12.6821,11.2575,8.9124,1.6213,18.0771,1.3902,26.9402,3.6486,17.4241,4.4399,26.7013,14.5532,27.3557,30.1838.6717,16.0408-8.5088,29.7945-24.8316,34.4774-26.6985,7.6593-51.5648,4.7292-73.0368-15.744Z"/>
  <path class="cls-4" d="M1328.784,477.6066h-64.8436c12.7905-60.1173,25.5078-119.8904,38.2835-179.938h64.8388c-12.7826,60.0882-25.5219,119.9716-38.2787,179.938Z"/>
  <path class="cls-4" d="M1450.6447,596.4267c5.7611,5.8174,11.2048,11.3143,16.8981,17.0632-4.043,4.8786-9.4407,8.1638-15.2301,10.8209-17.0011,7.8031-34.7198,9.154-52.5585,4.0672-21.4497-6.1163-34.2112-20.6968-37.8149-42.7308-3.517-21.5042.2064-41.1876,17.3011-56.2838,21.5204-19.0043,61.4141-18.1078,80.6664,1.395,9.5326,9.6567,13.1761,21.8133,14.3162,34.8555.4893,5.597.082,11.2723.082,17.4834h-85.1812c.9674,8.8029,5.2707,14.7528,12.2481,18.3507,15.632,8.0605,30.9419,5.9825,45.7572-2.5857.6493-.3755,1.2006-.9167,1.816-1.3546.4432-.3153.9177-.5869,1.6995-1.081ZM1447.3461,560.5503c-1.6013-13.082-11.5955-20.4408-27.198-20.5297-15.6857-.0894-28.1327,8.4178-29.8083,20.5297h57.0063Z"/>
  <path class="cls-3" d="M489.5115,225.0165h18.9535c-8.7805,42.147-17.404,83.5404-26.076,125.1663-15.8229,0-31.2796,0-46.7359-.0007.7837-2.0499-.4863-3.6319-1.2189-5.3342-6.0179-13.9826-9.3702-28.6811-9.5415-43.7966-.2661-23.48,6.3425-45.2419,18.4974-65.3803,2.0026-3.3178,4.9595-6.2808,5.3153-10.4791,13.187-.09,26.3741-.18,39.5607-.27.3754.5491.7904.5862,1.2455.0947Z"/>
  <path class="cls-5" d="M415.2861,350.4097c-18.5398-18.5191-36.3353-37.7609-55.5391-55.6453-12.7957-11.9166-21.0106-27.04-26.1118-43.7758-1.2104-3.9708-2.6528-7.8149-4.5598-11.5306-1.5014-2.9254-3.1098-6.158.4143-9.0436.8331-.6822.2981-1.7311.2461-2.6455-1.1414-20.0657,1.2709-39.6466,10.1385-57.8217,7.1924-14.7416,16.2755-28.4402,26.9934-40.9355,3.5139-4.0967,6.2732-8.9972,11.3303-11.6162-.6156,3.1652-1.23,6.3334-1.8391,9.4877-13.9227,16.9807-26.3252,34.9504-35.0038,55.2535-6.6269,15.5035-8.0741,31.5329-4.4266,47.9911.4627-2.1789.5074-4.3814.4554-6.5816-.3184-13.4615.5483-26.4124,6.8495-39.036,6.6796-13.3816,13.4485-26.638,22.4226-38.5542,3.2671-4.3382,2.8912-10.766,8.3842-13.5678-1.3399,8.2088-2.7962,16.3917-5.4162,24.2938-.9435,1.4067-1.8882,2.8351-2.8325,4.2637-.3885.3906-.7775.7809-1.1664,1.1712-.3787.745-.7574,1.49-1.1393,2.2342.3671-.7566.7375-1.5123,1.1075-2.2684.3881-.3907.7766-.7811,1.1651-1.1714.9533-1.0104,1.9065-2.0208,2.8599-3.0312-4.1512,19.8134-8.3133,39.6245-12.4401,59.443-.5226,2.5096-1.6795,5.014-.4231,7.6346-1.9344,10.0548-1.5536,19.9923,1.2311,29.8183-1.9182-9.9961.3706-19.942.451-29.9013,19.8442.088,39.6884.176,59.5325.2635-8.7173,16.2103-15.1169,33.0911-14.8508,51.8608.0334,2.3555-.4205,4.5013-1.772,6.4021-.8872,1.2477-1.7905,2.4312-1.5732,4.0867,1.2033,9.172,2.5928,18.239,6.1411,26.9455,4.967,12.1876,10.415,24.1222,16.5883,35.7361-2.4057.0801-4.8114.1603-7.2171.2404ZM361.077,169.9918c.3812-.7446.7624-1.4892,1.1432-2.2266-.3701.7537-.7402,1.5074-1.1095,2.2617-.3891.3905-.7781.7809-1.1671,1.1714-.3645.7727-.7291,1.5453-1.0936,2.318-.3773.7583-.7547,1.5166-1.132,2.2748-.3947.7278-.7893,1.4556-1.1888,2.182.3845-.7451.7691-1.4901,1.1511-2.2371.3789-.7566.7578-1.5132,1.1344-2.2716.3655-.767.731-1.5339,1.0956-2.3015.3889-.3904.7778-.7808,1.1667-1.1712ZM342.9035,266.4812c.1425.1703.285.3406.3025.3615-.023-.0172-.2013-.1511-.3797-.285-.1013-.2658-.2027-.5315-.3662-.9604.1998.3998.321.6421.4435.8839ZM345.1807,269.9493c-.1501-.0926-.3002-.1853-.4503-.2779l.5251.2018c.2371,2.8929,1.5313,5.0885,4.5408,6.1278-1.5379-2.0176-3.0758-4.0352-4.6156-6.0517ZM361.1253,291.4134l.1219.2768-.1735-.2213c-2.8078-5.1314-5.9512-9.9877-11.039-13.2489,3.0925,4.8962,5.5446,10.3231,11.0907,13.1933Z"/>
  <path class="cls-1" d="M291.7335,739.7392c13.6758-15.5177,29.4682-28.6157,47.1605-39.183,17.015-10.1628,35.4621-17.4251,54.228-23.73,12.3379-4.1452,24.9305-7.3144,38.1012-7.2752-1.0325,10.079-2.0647,20.1589-3.0975,30.2389-.3459,3.3751-.7493,6.7454-1.0301,10.1259-.9687,11.6607.601,9.1307-10.1723,11.8304-41.1023,10.3-82.7826,16.7009-125.1897,17.993Z"/>
  <path class="cls-4" d="M1505.1689,628.2171h-27.0237v-108.7379h24.929c.646,3.4627,1.2935,6.9337,2.1551,11.5514,8.3116-12.3628,19.9023-15.5245,33.0023-14.7238,9.6276.5884,18.3679,3.6019,25.8379,10.3576-4.1031,7.9431-8.0471,15.5787-12.2739,23.7614-6.0562-5.0103-12.7229-7.3449-20.3387-7.1321-16.0941.4498-26.0955,10.2348-26.2496,26.3788-.1678,17.572-.0383,35.1468-.0384,52.7204v5.8242Z"/>
  <path class="cls-4" d="M1352.1318,210.7019c18.0248-.1853,30.2918,9.2765,31.4375,24.2485,1.7347,22.6683-11.1944,39.6647-33.5394,43.9322-6.1426,1.1731-12.3338,1.6022-18.5891.5346-18.9328-3.2314-27.4525-15.7353-23.5271-34.6815,4.1866-20.2068,21.8526-33.804,44.2182-34.0339Z"/>
  <path class="cls-6" d="M422.5032,350.1694c-6.1734-11.6139-11.6214-23.5486-16.5883-35.7361-3.5483-8.7065-4.9378-17.7735-6.1411-26.9455-.2172-1.6555.6861-2.839,1.5732-4.0867,1.3515-1.9008,1.8054-4.0466,1.772-6.4021-.2661-18.7697,6.1335-35.6505,14.8508-51.8609,10.245.0181,20.4899.0356,30.7352.0534-.3556,4.1986-3.3125,7.1616-5.3151,10.4794-12.1549,20.1384-18.7635,41.9004-18.4974,65.3803.1713,15.1155,3.5237,29.814,9.5415,43.7966.7327,1.7024,2.0026,3.2843,1.2189,5.3342-4.3835-.0038-8.7667-.0083-13.1498-.0127Z"/>
  <path class="cls-2" d="M127.5738,480.8698c24.9671.468,46.4493,10.2042,66.0125,24.918,10.293,7.7415,19.5391,16.6119,27.6553,26.6249,1.3815,1.7044,2.5515,3.5801,3.8922,5.48-3.9218,2.737-5.3845-.0178-7.3009-2.0135-19.6254-20.437-40.7697-38.6874-68.485-47.5193-7.339-2.3387-15.1294-3.0012-22.2415-6.13.1561-.4534.3117-.9067.4673-1.36Z"/>
  <path class="cls-2" d="M375.0404,132.3881c-5.4931,2.8017-5.1172,9.2296-8.3842,13.5678-8.9741,11.9163-15.743,25.1726-22.4226,38.5542-6.3012,12.6235-7.1679,25.5745-6.8495,39.036.052,2.2002.0073,4.4028-.4554,6.5816-3.6475-16.4582-2.2003-32.4876,4.4266-47.9911,8.6785-20.3031,21.0811-38.2728,35.0037-55.2535-.443,1.8443-.8808,3.6746-1.3186,5.505Z"/>
  <path class="cls-2" d="M118.3227,524.1752c19.1965,4.2168,35.973,13.0825,51.6714,25.9949-5.9849,2.664-10.0359,2.7584-14.8463-1.0102-11.4488-8.9693-24.0263-16.1983-38.1287-20.392.1163-1.6218.2844-3.2278,1.3036-4.5926Z"/>
  <path class="cls-2" d="M115.8392,537.76c12.4083,2.7149,23.1813,8.7716,34.4462,15.8688-5.5872,2.852-9.6693,2.5547-14.1176-.0501-6.9735-4.0836-14.4831-7.0809-22.4176-8.8733.6967-2.3158,1.3929-4.6306,2.0891-6.9453Z"/>
  <path class="cls-2" d="M358.4373,224.8746c-.0804,9.9593-2.3692,19.9052-.451,29.9013-2.7847-9.826-3.1656-19.7635-1.2311-29.8183.5621-.0282,1.1221-.0556,1.6822-.0831Z"/>
  <path class="cls-2" d="M137.8658,431.0312h17.4578c.0025.4052.005.8104.0075,1.2157-5.9307,0-11.8614,0-17.7919-.0018.109-.4058.2178-.8098.3266-1.2139Z"/>
  <path class="cls-2" d="M369.6184,157.8801c-.9533,1.0104-1.9065,2.0208-2.8598,3.0312l.0328.0342c.9447-1.4284,1.8894-2.8568,2.8329-4.2635-.0027.4139-.0043.806-.0058,1.1981Z"/>
  <path class="cls-5" d="M489.5115,225.0165c-.4551.4915-.8701.4544-1.2455-.0947.4155.0316.8305.0631,1.2455.0947Z"/>
  <path class="cls-5" d="M327.5638,230.0166c-.5543-.6307-.7039-1.2592.0119-1.883.5255.6305.7287,1.2593-.0119,1.883Z"/>
  <path class="cls-2" d="M184.0973,548.1687c-3.0826-.7765-4.3144-1.9559-4.8718-4.5404,2.6923.3458,3.8087,1.6849,4.8718,4.5404Z"/>
  <path class="cls-2" d="M173.8948,538.6776c1.5365.5486,3.1339,1.0435,2.9218,3.2971-2.1756.3268-2.9543-1.0374-3.5646-2.6311.2141-.2221.4284-.4441.6428-.666Z"/>
  <path class="cls-2" d="M168.096,534.2435c1.189.7305,2.7446,1.0487,3.2258,3.2381-1.8797-.2561-3.136-.8383-3.7238-2.5736.1509-.2328.3169-.4543.498-.6644Z"/>
  <path class="cls-2" d="M167.598,534.908c-.8162-.296-1.892-.0927-2.3681-1.3319,1.3533-1.5194,2.0966-.3592,2.8655.6682-.1805.2095-.3465.431-.4974.6637Z"/>
  <path class="cls-2" d="M173.252,539.3436c-.1861-.3628-.3722-.7256-.5583-1.0884.3998.1414.7996.2828,1.2003.4232-.2135.221-.4278.443-.6419.6652Z"/>
  <path class="cls-2" d="M361.1256,291.4119c-5.5465-2.8687-7.9985-8.2956-11.091-13.1918,5.0879,3.2612,8.2312,8.1176,11.039,13.2489l.052-.0571Z"/>
  <path class="cls-2" d="M345.1825,269.9481c1.5379,2.0176,3.0758,4.0352,4.6137,6.0528-3.0095-1.0393-4.3037-3.2349-4.5408-6.1278,0,0-.0729.075-.0729.075Z"/>
  <path class="cls-2" d="M342.9021,266.4816c-.1211-.2423-.2422-.4845-.442-.8844.1635.4289.2649.6947.3662.9604l.0758-.0761Z"/>
  <path class="cls-2" d="M356.534,177.9744c.3946-.7278.7893-1.4556,1.1837-2.1842-.0003-.0009-.0348-.0523-.0348-.0523-.3845.7451-.7691,1.4901-1.1536,2.2352l.0048.0013Z"/>
  <path class="cls-2" d="M358.8171,173.4662c-.3789.7566-.7578,1.5132-1.1355,2.2708.0012.0009.0357.0523.0361.0532.3776-.7574.755-1.5157,1.1323-2.2739l-.0329-.05Z"/>
  <path class="cls-2" d="M358.85,173.5163c.3645-.7727.7291-1.5453,1.0938-2.3178.0002.0002-.0326-.0349-.0326-.0349-.3654.767-.7309,1.5339-1.0952,2.3017.0012.0009.034.0509.034.0509Z"/>
  <path class="cls-2" d="M362.2206,167.758c-.3812.7446-.7624,1.4892-1.1436,2.2338,0,0,.0329.0345.0329.0345.3701-.7537.7402-1.5074,1.1103-2.2611,0,0,.0004-.0073.0004-.0073Z"/>
  <path class="cls-2" d="M364.4892,164.3519c.3787-.745.7574-1.49,1.1363-2.2348.0002.0002-.0317-.0341-.0317-.0341-.3704.7558-.7407,1.5115-1.1111,2.2673l.0065.0016Z"/>
  <polygon class="cls-2" points="361.0736 291.469 361.2472 291.6903 361.1255 291.4127 361.0736 291.469"/>
  <path class="cls-2" d="M366.7585,160.9112c-.3885.3904-.777.7807-1.1651,1.1714.0004.0003.0322.0346.0321.0345.3887-.3905.7777-.7808,1.1662-1.1714-.0004-.0003-.0332-.0345-.0332-.0345Z"/>
  <path class="cls-2" d="M345.2554,269.8731l-.5251-.2018c.1501.0926.3002.1853.4513.2773.0009-.0006.0738-.0755.0738-.0755Z"/>
  <path class="cls-2" d="M342.8263,266.5576c.1784.1339.3568.2678.3797.285-.0175-.0209-.16-.1912-.3032-.3613-.0007.0002-.0765.0763-.0765.0763Z"/>
  <path class="cls-2" d="M361.077,169.9918c-.3889.3904-.7778.7808-1.1663,1.1715.0004.0003.0332.0354.033.0352.3888-.3906.7779-.7811,1.1665-1.1718-.0004-.0003-.0333-.0348-.0333-.0348Z"/>
</svg>