<?xml version="1.0" encoding="UTF-8"?>
<svg id="Layer_1" data-name="Layer 1" xmlns="http://www.w3.org/2000/svg" viewBox="0 0 1920 810.1673">
  <defs>
    <style>
      .cls-1 {
        fill: #f2c310;
      }

      .cls-1, .cls-2, .cls-3, .cls-4, .cls-5, .cls-6, .cls-7, .cls-8, .cls-9, .cls-10, .cls-11, .cls-12, .cls-13, .cls-14, .cls-15, .cls-16, .cls-17, .cls-18, .cls-19, .cls-20, .cls-21, .cls-22, .cls-23, .cls-24, .cls-25, .cls-26, .cls-27, .cls-28, .cls-29, .cls-30, .cls-31, .cls-32, .cls-33, .cls-34, .cls-35, .cls-36, .cls-37, .cls-38, .cls-39, .cls-40, .cls-41, .cls-42, .cls-43, .cls-44, .cls-45, .cls-46, .cls-47, .cls-48, .cls-49, .cls-50, .cls-51, .cls-52, .cls-53, .cls-54, .cls-55, .cls-56, .cls-57, .cls-58, .cls-59, .cls-60, .cls-61, .cls-62, .cls-63, .cls-64, .cls-65, .cls-66, .cls-67, .cls-68, .cls-69, .cls-70, .cls-71, .cls-72, .cls-73, .cls-74, .cls-75, .cls-76, .cls-77, .cls-78, .cls-79, .cls-80, .cls-81, .cls-82, .cls-83, .cls-84, .cls-85, .cls-86, .cls-87, .cls-88, .cls-89, .cls-90, .cls-91, .cls-92, .cls-93, .cls-94, .cls-95, .cls-96, .cls-97, .cls-98, .cls-99, .cls-100, .cls-101, .cls-102, .cls-103, .cls-104, .cls-105, .cls-106, .cls-107, .cls-108, .cls-109, .cls-110, .cls-111, .cls-112, .cls-113, .cls-114, .cls-115, .cls-116, .cls-117, .cls-118, .cls-119, .cls-120, .cls-121, .cls-122, .cls-123, .cls-124, .cls-125, .cls-126, .cls-127, .cls-128, .cls-129, .cls-130, .cls-131, .cls-132, .cls-133, .cls-134, .cls-135, .cls-136, .cls-137, .cls-138, .cls-139, .cls-140, .cls-141, .cls-142, .cls-143, .cls-144, .cls-145, .cls-146, .cls-147, .cls-148, .cls-149, .cls-150, .cls-151, .cls-152, .cls-153, .cls-154, .cls-155, .cls-156, .cls-157, .cls-158, .cls-159, .cls-160, .cls-161, .cls-162, .cls-163, .cls-164, .cls-165, .cls-166, .cls-167, .cls-168, .cls-169, .cls-170, .cls-171, .cls-172, .cls-173, .cls-174, .cls-175, .cls-176, .cls-177, .cls-178, .cls-179, .cls-180, .cls-181, .cls-182, .cls-183, .cls-184, .cls-185, .cls-186, .cls-187, .cls-188 {
        stroke-width: 0px;
      }

      .cls-2 {
        fill: #893825;
      }

      .cls-3 {
        fill: #ac4019;
      }

      .cls-4 {
        fill: #b0421a;
      }

      .cls-5 {
        fill: #8c3623;
      }

      .cls-6 {
        fill: #75292e;
      }

      .cls-7 {
        fill: #9a3820;
      }

      .cls-8 {
        fill: #cb5216;
      }

      .cls-9 {
        fill: #8c2c34;
      }

      .cls-10 {
        fill: #983620;
      }

      .cls-11 {
        fill: #a53d1b;
      }

      .cls-12 {
        fill: #ab4016;
      }

      .cls-13 {
        fill: #512347;
      }

      .cls-14 {
        fill: #712a39;
      }

      .cls-15 {
        fill: #913921;
      }

      .cls-16 {
        fill: #383872;
      }

      .cls-17 {
        fill: #333f79;
      }

      .cls-18 {
        fill: #3d3f76;
      }

      .cls-19 {
        fill: #384580;
      }

      .cls-20 {
        fill: #7f233c;
      }

      .cls-21 {
        fill: #ad3f1d;
      }

      .cls-22 {
        fill: #ea6c0b;
      }

      .cls-23 {
        fill: #461c48;
      }

      .cls-24 {
        fill: #84545b;
      }

      .cls-25 {
        fill: #9d362d;
      }

      .cls-26 {
        fill: #652339;
      }

      .cls-27 {
        fill: #823227;
      }

      .cls-28 {
        fill: #572544;
      }

      .cls-29 {
        fill: #e7a808;
      }

      .cls-30 {
        fill: #60283f;
      }

      .cls-31 {
        fill: #a33e16;
      }

      .cls-32 {
        fill: #8c2c33;
      }

      .cls-33 {
        fill: #b14226;
      }

      .cls-34 {
        fill: #75233b;
      }

      .cls-35 {
        fill: #8c2c32;
      }

      .cls-36 {
        fill: #5f1f3c;
      }

      .cls-37 {
        fill: #74333b;
      }

      .cls-38 {
        fill: #7a2c2e;
      }

      .cls-39 {
        fill: #471c47;
      }

      .cls-40 {
        fill: #c35522;
      }

      .cls-41 {
        fill: #963331;
      }

      .cls-42 {
        fill: #471d47;
      }

      .cls-43 {
        fill: #923128;
      }

      .cls-44 {
        fill: #51274a;
      }

      .cls-45 {
        fill: #7e2537;
      }

      .cls-46 {
        fill: #43214f;
      }

      .cls-47 {
        fill: #ae4216;
      }

      .cls-48 {
        fill: #b7461b;
      }

      .cls-49 {
        fill: #735468;
      }

      .cls-50 {
        fill: #92381d;
      }

      .cls-51 {
        fill: #2188c9;
      }

      .cls-52 {
        fill: #c24b16;
      }

      .cls-53 {
        fill: #753034;
      }

      .cls-54 {
        fill: #6b536c;
      }

      .cls-55 {
        fill: #54294b;
      }

      .cls-56 {
        fill: #843427;
      }

      .cls-57 {
        fill: #471b47;
      }

      .cls-58 {
        fill: #472049;
      }

      .cls-59 {
        fill: #7f2f29;
      }

      .cls-60 {
        fill: #ea6c0c;
      }

      .cls-61 {
        fill: #f6c812;
      }

      .cls-62 {
        fill: #751c3f;
      }

      .cls-63 {
        fill: #701747;
      }

      .cls-64 {
        fill: #264c8e;
      }

      .cls-65 {
        fill: #983a19;
      }

      .cls-66 {
        fill: #ae5535;
      }

      .cls-67 {
        fill: #da9e07;
      }

      .cls-68 {
        fill: #551d3e;
      }

      .cls-69 {
        fill: #e9ae09;
      }

      .cls-70 {
        fill: #a03a20;
      }

      .cls-71 {
        fill: #a03c17;
      }

      .cls-72 {
        fill: #953722;
      }

      .cls-73 {
        fill: #832636;
      }

      .cls-74 {
        fill: #7e3531;
      }

      .cls-75 {
        fill: #dca108;
      }

      .cls-76 {
        fill: #5e233b;
      }

      .cls-77 {
        fill: #9d3c16;
      }

      .cls-78 {
        fill: #8a2d2d;
      }

      .cls-79 {
        fill: #353d78;
      }

      .cls-80 {
        fill: #a83d20;
      }

      .cls-81 {
        fill: #4a1c46;
      }

      .cls-82 {
        fill: #a43d1a;
      }

      .cls-83 {
        fill: #9b3917;
      }

      .cls-84 {
        fill: #862932;
      }

      .cls-85 {
        fill: #b0502d;
      }

      .cls-86 {
        fill: #5f223b;
      }

      .cls-87 {
        fill: #b2421a;
      }

      .cls-88 {
        fill: #b26144;
      }

      .cls-89 {
        fill: #461d49;
      }

      .cls-90 {
        fill: #a83f17;
      }

      .cls-91 {
        fill: #b24218;
      }

      .cls-92 {
        fill: #532043;
      }

      .cls-93 {
        fill: #b6491d;
      }

      .cls-94 {
        fill: #943519;
      }

      .cls-95 {
        fill: #3a366f;
      }

      .cls-96 {
        fill: #762a2d;
      }

      .cls-97 {
        fill: #973918;
      }

      .cls-98 {
        fill: #431c49;
      }

      .cls-99 {
        fill: #91583b;
      }

      .cls-100 {
        fill: #48204a;
      }

      .cls-101 {
        fill: #471e49;
      }

      .cls-102 {
        fill: #0e6ab1;
      }

      .cls-103 {
        fill: #8d2f29;
      }

      .cls-104 {
        fill: #e1ac0a;
      }

      .cls-105 {
        fill: #ba4619;
      }

      .cls-106 {
        fill: #33407a;
      }

      .cls-107 {
        fill: #815f69;
      }

      .cls-108 {
        fill: #8a3724;
      }

      .cls-109 {
        fill: #c3531d;
      }

      .cls-110 {
        fill: #8d2a32;
      }

      .cls-111 {
        fill: #822f29;
      }

      .cls-112 {
        fill: #2b5998;
      }

      .cls-113 {
        fill: #705f77;
      }

      .cls-114 {
        fill: #1c5ca3;
      }

      .cls-115 {
        fill: #ae4118;
      }

      .cls-116 {
        fill: #421e4c;
      }

      .cls-117 {
        fill: #a06f39;
      }

      .cls-118 {
        fill: #363b74;
      }

      .cls-119 {
        fill: #8c3620;
      }

      .cls-120 {
        fill: #4a1e46;
      }

      .cls-121 {
        fill: #1bafe0;
      }

      .cls-122 {
        fill: #5c1f3d;
      }

      .cls-123 {
        fill: #98391c;
      }

      .cls-124 {
        fill: #71627e;
      }

      .cls-125 {
        fill: #444072;
      }

      .cls-126 {
        fill: #a43d1b;
      }

      .cls-127 {
        fill: #6a2538;
      }

      .cls-128 {
        fill: #dfa006;
      }

      .cls-129 {
        fill: #5d223b;
      }

      .cls-130 {
        fill: #343c78;
      }

      .cls-131 {
        fill: #264c8d;
      }

      .cls-132 {
        fill: #8f3d2a;
      }

      .cls-133 {
        fill: #5d507a;
      }

      .cls-134 {
        fill: #a33f16;
      }

      .cls-135 {
        fill: #e7a508;
      }

      .cls-136 {
        fill: #3c3269;
      }

      .cls-137 {
        fill: #a53e1b;
      }

      .cls-138 {
        fill: #561d45;
      }

      .cls-139 {
        fill: #94312f;
      }

      .cls-140 {
        fill: #6f4a60;
      }

      .cls-141 {
        fill: #454072;
      }

      .cls-142 {
        fill: #7c2d29;
      }

      .cls-143 {
        fill: #903a25;
      }

      .cls-144 {
        fill: #491d47;
      }

      .cls-145 {
        fill: #84352a;
      }

      .cls-146 {
        fill: #842736;
      }

      .cls-147 {
        fill: #91371f;
      }

      .cls-148 {
        fill: #9b381d;
      }

      .cls-149 {
        fill: #1465ab;
      }

      .cls-150 {
        fill: #7d223a;
      }

      .cls-151 {
        fill: #ab6f35;
      }

      .cls-152 {
        fill: #7f332e;
      }

      .cls-153 {
        fill: #a33924;
      }

      .cls-154 {
        fill: #3a3c74;
      }

      .cls-155 {
        fill: #a63d1b;
      }

      .cls-156 {
        fill: #3e3c72;
      }

      .cls-157 {
        fill: #5b2540;
      }

      .cls-158 {
        fill: #59213f;
      }

      .cls-159 {
        fill: #791c4f;
      }

      .cls-160 {
        fill: #b64517;
      }

      .cls-161 {
        fill: #a83f18;
      }

      .cls-162 {
        fill: #363b73;
      }

      .cls-163 {
        fill: #fff;
      }

      .cls-164 {
        fill: #461d48;
      }

      .cls-165 {
        fill: #6a2637;
      }

      .cls-166 {
        fill: #451d49;
      }

      .cls-167 {
        fill: #62213a;
      }

      .cls-168 {
        fill: #9c3a18;
      }

      .cls-169 {
        fill: #494573;
      }

      .cls-170 {
        fill: #a45b48;
      }

      .cls-171 {
        fill: #65263e;
      }

      .cls-172 {
        fill: #8a3220;
      }

      .cls-173 {
        fill: #551b45;
      }

      .cls-174 {
        fill: #d25815;
      }

      .cls-175 {
        fill: #a33c1d;
      }

      .cls-176 {
        fill: #e6a509;
      }

      .cls-177 {
        fill: #7d2e27;
      }

      .cls-178 {
        fill: #592642;
      }

      .cls-179 {
        fill: #98361f;
      }

      .cls-180 {
        fill: #5c2442;
      }

      .cls-181 {
        fill: #521e44;
      }

      .cls-182 {
        fill: #481c46;
      }

      .cls-183 {
        fill: #883220;
      }

      .cls-184 {
        fill: #892a34;
      }

      .cls-185 {
        fill: #973520;
      }

      .cls-186 {
        fill: #8c2b33;
      }

      .cls-187 {
        fill: #923220;
      }

      .cls-188 {
        fill: #8e3822;
      }
    </style>
  </defs>
  <g>
    <path class="cls-61" d="M321.0546,386.1713c-3.9855,19.1712-7.9455,38.3477-11.9625,57.5122-6.3375,30.2353-12.8793,60.4292-18.9857,90.7108-2.2257,11.0372-1.5484,22.1514,2.0623,32.9533-2.2565,3.8083-5.7015,6.4866-8.9219,9.387-9.3272,7.9505-18.0082,16.7558-28.7193,22.9033-14.0879,8.0856-28.4998,15.4888-44.136,20.3273-28.1328,8.7055-56.6542,15.7476-85.6839,20.7047-3.151.538-6.0365,2.3493-9.3783,1.8936-6.0348-19.5253-7.1441-39.5898-6.2802-59.818.3133-7.3376,1.3545-14.6442,2.0636-21.9649,9.3665-3.3892,19.3286-3.9588,28.9544-6.1219,3.2223-.4784,6.4399-.9833,9.5984-1.808,3.242-.4821,6.4671-1.0708,9.7028-1.5885,3.2001-.4278,6.3674-1.0351,9.5067-1.7928,4.0585-.7353,8.1059-1.526,12.1294-2.4407.8709-.2159,1.7599-.311,2.647-.4169,12.9147-2.4222,25.6068-5.8795,38.5205-8.2811.5348-.2142,1.0849-.3899,1.6337-.5624,2.1611-.7018,4.2936-1.4916,6.4326-2.2656,13.8174-4.5517,27.6919-8.9436,40.5207-16.0048,6.6001-3.6329,7.1422-4.4499,5.2829-11.6143-1.5702-6.0507-3.906-11.9085-7.3563-17.0976-20.1946-30.3718-47.6221-51.3256-82.7153-61.6007-12.5693-3.6802-25.6938-4.0412-38.776-2.5125-2.7645.323-5.6208,1.2711-8.0678-1.0028,4.0334-19.3241,8.0675-38.6482,12.0986-57.9728.2689-1.2891.4983-2.5865.7745-3.8741,2.9418-13.7117,2.9301-13.5984-10.6943-15.2089-12.3457-1.4594-24.6579-3.2016-36.9849-4.8191-.078-2.2566,1.8643-2.6813,3.2885-3.3502,20.1741-9.4752,41.0294-16.2939,63.6541-16.2554,14.7223.0251,29.4936-.7232,43.8997,3.3447,1.5457.0439,3.0933.0936,4.6308.2765,4.8969.9628,9.8102,1.8658,14.6761,2.9857.7885.246,1.6081.3941,2.4.6255,2.222.7058,4.4248,1.4871,6.6614,2.1535.478.1322.9443.3082,1.4029.4947,1.5425.6733,3.1477,1.1829,4.7553,1.6843.4643.1207.9156.2797,1.3645.4468,1.1213.4224,2.2094.9239,3.3168,1.3823,1.1356.4625,2.319.7913,3.4611,1.2404,2.9953,1.4442,5.9624,2.9427,8.977,4.3476,3.9787,2.0313,7.6863,4.5328,11.6262,6.632,16.0564,8.524,29.0698,20.7646,41.3942,33.8447.6672.7082.7244,1.7267,1.2259,2.5232Z"/>
    <path class="cls-22" d="M321.0546,386.1713c-11.514-10.9499-22.6445-22.3461-36.0614-31.0889-2.3189-1.5111-4.7226-2.8922-7.0871-4.3333-2.4434-3.2558-2.4813-7.4457-4.2793-10.9511-1.1607-3.3777-2.1917-6.8004-3.4176-10.1573-.5032-1.5337-.9888-3.0746-1.6683-4.5455-2.0499-5.2689-4.1996-10.498-6.28-15.7531-.5917-1.4577-1.1808-2.918-1.7149-4.3978-1.8952-4.7223-4.4192-9.182-5.9385-14.0605-.2633-.4267-.5011-.8675-.7405-1.307-1.1863-1.9097-1.8714-4.0565-2.8878-6.0456-.3947-.6185-.7793-1.243-1.1478-1.8771-.8004-1.5094-1.551-3.0441-2.2712-4.5953-.4628-1.1563-.9186-2.3145-1.6071-3.3673-10.5935-19.8134-21.8326-39.1909-37.2295-55.8005-5.7323-7.5601-13.3726-13.1096-20.409-19.2904-2.3869-2.0967-5.0789-3.8652-6.7828-6.651,15.1569-13.6921,26.4818-30.1356,34.9717-48.6145,6.457-1.1747,11.0295,3.028,16.1635,5.6343,9.5905,5.1981,19.6937,9.4786,28.6194,15.8742,10.392,6.877,20.4543,14.2022,29.8949,22.345,7.648,6.5967,13.5913,14.6271,18.9335,23.1116,4.2249,6.7102,8.4761,13.386,13.9496,19.182,1.5601,1.5223,2.4564,3.4738,3.4757,5.3477,1.136,2.3774,2.2902,4.7464,3.5748,7.0517,1.6096,2.8585,2.5346,5.9698,3.398,9.1059,3.847,13.7223,11.4112,25.4976,19.4263,37.0387,3.3831,7.3606,7.4065,14.3897,11.3165,21.4674,6.7524,12.2227,12.1221,25.0842,17.9011,37.7582.4682,1.0268.7739,2.1348.2725,3.2747-16.3868.0358-32.7765.2506-49.1585-.0126-4.3618-.0701-5.7232,1.4563-6.5035,5.4505-1.9771,10.1198-4.4425,20.1444-6.7124,30.2071Z"/>
    <path class="cls-22" d="M283.3887,575.4066c2.6955-2.9369,4.9933-6.3067,8.7811-8.0563,7.5352,20.0167,23.8586,28.1637,43.3585,31.9741,17.0997,3.3413,34.2199,1.9172,51.3358.1062.891,2.201-.4046,4.0519-1.0403,5.9672-9.9333,29.9221-23.821,57.9992-39.8063,85.1007-1.6091,2.728-3.8368,5.2181-3.9419,8.647-.422,1.9317-2.1529,2.4982-3.5734,3.362-14.7513,8.9697-27.8598,19.9918-40.1486,32.0392-2.2838,2.239-4.3807,4.7527-7.8761,5.1298-31.8511.3126-63.2586-2.5042-93.5366-13.2583-.6875-.2442-1.3138-.6599-1.9687-.9956-.2346-2.1152,1.0886-3.5174,2.2646-5.0029,23.994-30.3085,42.6659-63.6994,57.6379-99.2415,3.0091-7.1432,6.2359-14.1968,8.1808-21.7358,6.4436-8.2889,12.8788-16.5932,20.3333-24.0361Z"/>
    <path class="cls-52" d="M181.5317,191.9494c10.3217,7.2731,20.0045,15.2639,28.1337,24.9997-3.3728,2.9852-4.7795,7.0346-6.4937,11.0603-10.1881,23.9257-19.378,48.3758-34.3961,69.9114-7.7209,11.0716-17.1495,20.4943-28.3513,28.1782-5.7614,3.9521-12.1571,6.0381-18.7713,7.5696-12.5245,2.9-25.296,4.3683-38.112,4.5984-4.6893.0842-9.814.3771-14.2781-2.1911,4.1538-20.178,8.2903-40.3595,12.4907-60.5279.3761-1.8058,1.1667-3.5254,1.7648-5.285,7.2538-13.8213,15.0232-27.3893,20.6658-42.0024.4807-1.245,1.1886-2.3545,2.212-3.2392,28.3606-3.5064,53.4434-14.445,75.1355-33.0721Z"/>
    <path class="cls-69" d="M139.1263,425.6699c5.8125-.3642,11.6208-.8299,17.4384-1.0755,28.91-1.2209,53.7491,9.7014,76.4671,26.2661,14.2357,10.3798,26.4934,22.8478,36.0364,37.7933,4.7042,7.3674,7.8381,15.3573,9.6547,23.9053.5747,2.7043-.4823,4.126-2.6813,5.5081-9.0033,5.6584-18.7115,9.76-28.6979,13.2475-5.6878,1.9863-11.4629,3.7228-17.1988,5.5718-2.133-.7542-3.0107-2.7403-4.3138-4.3292-13.4616-16.4141-27.9602-31.5427-47.012-41.8306-14.3034-7.7237-29.5836-11.0074-45.4868-12.4521-1.8525-.1683-3.829.063-5.2929-1.4948,3.0721-14.3772,6.1442-28.7544,9.2163-43.1316,9.4012-2.3921,18.6477-1.2873,27.7932,1.3394,35.2683,10.1295,62.9485,31.2283,85.7344,59.3549,1.4418,1.7797,3.3647,3.1135,4.4155,5.0001-14.9586-18.9089-32.1896-35.6314-52.7504-48.7239-14.6742-9.3441-30.3693-16.0794-47.8587-18.0523-5.6274-.8011-11.4821,1.4423-16.943-1.3267.4571-1.8661.1457-3.9361,1.4795-5.5698Z"/>
    <path class="cls-121" d="M419.0278,225.4291c28.1291.0577,56.2584.1779,84.3871.1008,3.8923-.0107,4.4252,1.4867,3.7363,4.7646-8.1364,38.7168-16.2516,77.4381-24.2534,116.1828-.6538,3.1658-1.8548,4.2743-5.1932,4.222-13.9738-.2192-27.9524-.1268-41.9293-.1485-7.2221-11.2496-10.32-24.0534-11.4697-36.9248-1.4568-16.3096-1.1403-32.7726,4.0693-48.7345,2.9447-9.0226,7.1183-17.4383,11.4412-25.8111,1.8843-3.6496,4.3364-6.9993,6.5163-11.3194-7.3697-.319-14.0976-.0018-20.8094-.2037-2.3108-.0695-5.0111.6307-6.4952-2.1281Z"/>
    <path class="cls-12" d="M69.2628,336.0759c17.1052,1.3331,34.0005-.2428,50.8132-3.4257,11.2607-2.1317,20.8015-7.5595,29.1297-15.0814,15.616-14.1041,26.816-31.217,35.1069-50.5824,6.4371-15.0355,14.2161-29.4936,19.5561-45.0241.8988-2.6141,1.9637-5.5492,5.7972-5.0136,15.653,16.7887,27.1539,36.3281,37.5624,56.5913-6.1996,11.1384-11.8676,22.5945-19.6082,32.7654-.0898.2874-.4065.44-.5848.707.3036-.043.5074-.2324.629-.5963,6.348-8.2412,12.3573-16.6553,16.967-26.0001.7402-1.5005,1.1278-3.8227,3.7777-3.3666,1.4331,1.2027,2.104,2.769,2.203,4.6082.7315,2.5009-.8121,4.3221-1.8934,6.2724-7.3894,13.327-16.9368,24.9344-28.1338,35.2286-1.9461,1.7892-3.8239,3.6485-5.3894,5.7943-23.9528-4.606-47.9152-5.1943-71.796.3096-13.6331,3.142-26.7161,7.9169-39.0817,14.5326-10.8224-1.4361-21.6388-2.9425-32.4788-4.2539-2.422-.293-3.5771-.9215-2.5761-3.4655Z"/>
    <path class="cls-29" d="M283.3887,575.4066c-5.6925,8.5406-12.1824,16.4428-19.1915,23.9295-7.0281,6.5289-12.1987,14.8651-20.0819,20.5701-1.3884,1.0048-2.3426,2.4589-3.1009,3.9878-5.3138,10.7133-13.6975,18.7219-22.6439,26.375-8.0071,6.8496-15.4719,14.3039-20.4241,23.8363-5.9787,8.7387-15.5729,12.6974-24.2751,17.5487-6.6547,3.7098-12.6502,9.1798-20.7907,9.8836-18.8998-15.6014-31.1509-35.4282-37.5511-58.9738,5.2861-3.8955,11.7793-3.2388,17.7189-4.6461,12.2226-2.8957,24.3919-6.162,36.7544-8.2769,10.493-1.7949,20.7313-4.9141,30.77-7.7827,18.0235-5.1501,35.4728-12.6852,51.7279-22.4844,9.8914-5.963,18.3799-13.633,26.9176-21.2699,1.255-1.1225,2.2801-2.5681,4.1704-2.6973Z"/>
    <path class="cls-1" d="M290.4775,739.6766c9.332-7.871,17.7038-16.8065,27.3482-24.3463,7.5436-5.8973,15.3801-11.3179,23.633-16.1555,2.8399-4.347,7.65-6.0016,11.948-7.964,15.3805-7.0222,31.0037-13.4998,47.3066-18.17,6.8722-2.2485,14.0027-3.3039,21.0853-4.595.9169-.1787,1.8413-.2635,2.7745-.2799,2.1875.0569,4.4723-.3341,6.3165,1.3349-1.4781,15.026-3.0526,30.0437-4.3675,45.0839-.3338,3.8185-1.9363,5.4186-5.653,6.3327-40.4661,9.951-81.3124,17.2611-123.0906,18.4237-2.4349.0677-4.8674.2216-7.301.3354Z"/>
    <path class="cls-174" d="M400.5896,674.2516c-14.6992,5.1899-29.422,10.3316-43.5558,16.9554-5.2774,2.4732-10.3881,5.3014-15.575,7.9678-1.9454-1.591-.6305-2.8894.2827-4.3605,13.559-21.8398,24.9672-44.7906,34.943-68.4463,3.7273-8.8385,6.8058-17.9502,10.1798-26.9373,15.7453-2.4719,31.2311-6.1308,46.6307-10.1838,2.1151,3.658-.0016,6.9957-1.069,10.2345-7.7451,23.5018-17.6541,46.0914-29.157,67.9938-1.1314,2.1543-2.4839,4.2432-2.6795,6.7763Z"/>
    <path class="cls-135" d="M223.31,539.3198c-13.2418,2.9692-26.4836,5.9384-39.7254,8.9076-5.1648-5.2368-11.0957-9.5481-16.8965-13.9554-.3391-.1219-.591-.3768-.7265-.7389-.0564.3884.1353.6462.6038.79,4.3899,3.2907,8.8531,6.4322,12.8625,10.1561,1.1094,1.0303,2.4738,1.8299,2.0306,3.6774-4.0397,1.5082-8.1909,2.4285-12.5276,2.3699-4.9787-1.6251-8.4309-5.6367-12.8373-8.1917-10.838-6.2844-21.9089-11.9816-34.0436-15.3638-1.6642-.4638-3.2661-1.0086-4.2688-2.5618,2.6126-14.0777,5.516-28.0925,9.0942-41.9614.9428-.9195,2.0545-.7232,3.19-.5154,26.9428,4.9302,50.2419,17.0113,70.5834,35.2542,7.8828,7.0695,15.5102,14.3433,22.6612,22.1332Z"/>
    <path class="cls-98" d="M197.381,673.1409c4.8928-10.7907,13.8005-18.1262,22.3003-25.799,7.7223-6.971,14.1486-14.8281,20.1297-23.4677,6.5006-9.3899,14.5664-18.0394,24.3865-24.5378-.964,8.0024-4.9348,14.9598-7.9777,22.1954-15.7196,37.3783-35.3769,72.4715-61.2484,103.891-9.9575-3.0383-19.0883-7.7987-27.8384-13.3513.2788-4.7889,2.7777-8.5351,6.024-11.7078,8.7141-8.5162,16.8284-17.5452,24.2239-27.2228Z"/>
    <path class="cls-63" d="M221.3161,129.4944c1.0733-2.9871,2.1467-5.9742,3.22-8.9613,2.1787-1.6478,4.4275-.2501,6.4341-.3513-1.5771-.9683-4.4351.6624-5.6405-2.0331.1389-.3818.2779-.7636.4168-1.1454,2.7393-2.2796,5.4362.3413,8.1551.07,8.8565,1.1686,17.6694,3.2901,22.8982,1.9544-4.0693,1.113-11.8038-.5964-19.5709-1.4551-3.5812-.9469-7.5698-.364-10.7299-2.8701.1838-.7668.3675-1.5337.5512-2.3005,1.9906-1.3902,4.2024-1.4533,6.5128-1.1783,11.5642,1.3763,23.1074,1.2575,34.6204-.5797-11.4461,1.3044-22.8951,2.2613-34.3539.1622-1.9365-.3547-4.3224.0475-5.0201-2.6688.892-2.7335,1.7839-5.467,2.6759-8.2004,1.1858-.9441,2.5805-.6155,3.8286-.4095,11.031,1.8207,22.1428,1.9179,33.2876,1.4433-10.8412.5004-21.6492.4656-32.367-1.4642-1.4948-.2691-3.0527-.0913-3.9168-1.6931.5764-1.9551,1.1529-3.9102,1.7293-5.8652,2.6324-1.8679,5.673-1.5704,8.6318-1.5544,7.618.0413,15.2526.49,22.7748-1.1853,6.3912-2.369,13.0567-3.3739,19.8087-3.9554,2.243-.1932,4.5252-.6421,6.3055,1.315-1.8461,4.0546-6.6372,1.1155-8.3359,3.5622,2.5634-1.8705,7.1845-.3226,10.0142-3.6855,3.6648-3.9902,8.9116-3.5969,13.5491-4.7327,10.7884-2.6424,20.7335-7.6042,31.2486-10.9736l15.8975-.0061c1.0621,11.3612.5444,22.7456.4351,34.1212-.0172,1.7901-.1299,3.8529-2.4911,4.4919-2.1094-1.616-1.7171-3.9863-1.7381-6.1631-.0701-7.2583-.0587-14.5175-.0192-21.7301-4.3044.0165-5.5813,3.7669-7.8539,6.251-1.5327,1.9734-3.4499,3.6402-4.6897,5.8535-1.0546,1.4415-2.0736,2.9136-3.4365,4.0985-4.0257,3.3505-7.4875,7.2804-11.2368,10.9151-.9652.9131-1.9126,1.855-3.2305,2.2632-1.7619-.0217-3.3267-2.1895-5.3561.414-2.1478,2.7554-5.6192,4.2466-8.5301,6.2633-1.0795.6326-2.2101,1.1238-3.4878,1.1386-.4532-.0695-.8679-.2534-1.2408-.5133-.6861-.4823-1.4195-.8449-2.3041-.726-.6303.1843-1.198.486-1.7552.8292-.8306.5311-1.707.9419-2.6514,1.2169-3.6022.9252-7.0785,2.2278-10.5955,3.4125-4.0392,1.2275-8.0149,2.6207-11.889,4.3222-.5789.2205-1.1679.371-1.7735.4862-11.2149,3.2845-22.7921,3.5168-34.3248,4.1566-4.7068-1.4667-10.0308.8488-14.4565-2.3394Z"/>
    <path class="cls-51" d="M419.0278,225.4291c9.7193,1.4519,19.5332-.0781,29.5309.8342-.3587,3.4852-2.6944,5.9152-4.3244,8.4842-9.6954,15.2807-16.6529,31.7698-18.3386,49.6932-1.5278,16.2443-1.0839,32.6298,3.9073,48.6479,1.8361,5.8923,5.8233,11.0377,5.9717,17.4622-6.929-.0208-13.8586-.0416-20.7882-.0624-.0359-.6604.2294-1.1618.7884-1.5081,3.3033-1.1217,2.2759-3.0074,1.1539-5.2603-4.4563-8.9474-8.5835-18.0475-12.352-27.3114-3.6503-8.9734-5.8716-18.2401-6.2187-27.9367-.0203-.5649-.1873-1.1657-.0066-1.6872,4.758-13.7337,2.8168-28.8273,8.8242-42.371,2.3496-5.2972,5.0845-10.4903,6.791-16.1649-2.2195-1.2937-4.5119-.6386-6.6825-.6498-13.781-.0713-27.5625-.0205-41.3437-.0493-2.2515-.0047-4.5459.2126-6.6969-.7677-.6049-.3178-.872-.8168-.8064-1.4936,20.1969.0469,40.3938.0938,60.5907.1407Z"/>
    <path class="cls-114" d="M333.4434,251.0097c-1.1416-3.0064-2.2832-6.0129-3.4248-9.0193-1.2794-3.5146-1.5715-7.1829-1.7071-10.8748-2.2972-13.3074-.0821-26.3385,2.409-39.3509.3911-1.4473.9203-2.8599,1.2599-4.3247.4955-1.8741,1.1177-3.7134,1.7041-5.5618.848-2.4865,1.9006-4.8958,2.866-7.3385.5091-1.4539,1.098-2.8752,1.7804-4.2565,1.252-2.4396,2.5755-4.8405,4.0963-7.1257.6196-1.0388,1.1636-2.1197,1.711-3.1985.8809-1.7177,2.0192-3.2789,2.992-4.9426.6106-1.0766,1.1295-2.2021,1.7749-3.261,1.5562-2.3773,3.3212-4.6015,4.9815-6.9018.5704-.8749,1.1593-1.7362,1.7451-2.6011,4.5316-6.6249,9.5578-12.876,14.8152-18.9201,1.9604-2.2538,3.5669-5.4092,7.3721-5.2372-.4698,2.7141-.9397,5.4282-1.4095,8.1422-3.3041,7.5179-9.4153,13.1015-13.7468,19.9248-7.8684,12.395-16.5989,24.2989-21.1219,38.5259-6.0187,14.5813-6.6182,29.7792-5.0566,45.2259-1.4253-14.1489-1.089-28.1245,3.8812-41.6398,1.4701-.7459,2.8008-1.2656,3.4462-3.2971,3.0951-9.7418,8.8478-18.1871,13.7394-27.0509,2.652-4.762,7.283-8.4035,8.0427-14.2352,1.8404-4.2576,3.5747-8.6168,8.8019-9.8561-.7527,7.4099-2.6534,14.5902-4.3697,21.8073-3.2349,6.1768-7.2239,11.9008-10.7605,17.8958-1.9158,3.2476-3.9083,6.4886-3.9403,10.4616-2.6959,7.6076-7.2495,14.46-8.7047,22.5861-3.7389,20.8783-4.2851,41.5415,3.3921,61.7669-.1557,2.5213.8233,4.5775,2.647,6.2842.9796,1.4663,1.5164,2.9781.4605,4.6448-2.5272.9861-3.4526-1.0752-4.7349-2.468-1.9437-3.2001-4.4505-6.0706-5.7801-9.6422-2.6138-5.6363-6.9607-10.293-9.1613-16.1616Z"/>
    <path class="cls-149" d="M349.4302,270.199c-10.604-28.5458-10.439-56.5907,3.8473-84.0088.4936-.9474.4646-2.1667.6792-3.2592,3.0872-7.6777,7.8355-14.4149,12.157-21.3923.5857-.9457,1.2461-1.931,2.6568-1.4614-2.4692,15.976-6.7265,31.5855-9.7329,47.447-1.127,5.9462-3.7323,11.6977-2.8219,17.9713,1.0856,1.0045,1.3245,2.3357.9585,3.6215-1.6825,5.9107-.8378,11.9005-.7123,17.8609.5717,1.5052.0476,3.1754.6464,4.5976-.0355-.6368-.2877-1.1483-.2947-1.7127.0148-1.1459.012-2.2782-.3974-3.3728.3904-5.0122-1.7627-10.2501,1.3807-14.9984,3.6322,2.0413,3.2944,5.7784,3.2847,8.955-.0475,15.4535,4.7492,30.1002,7.2626,45.1176,1.1979,7.1574,5.0886,13.3251,8.8761,19.4383,1.4733,2.378,3.2886,4.6568,3.2594,7.6891q-3.6773,1.3899-8.1126-3.8265c-4.7665-5.6933-9.3698-11.5154-13.2876-17.8463-1.6209-4.0755-6.7955-6.1509-6.424-11.35.4101-1.8283-.1977-3.4482-1.0303-5.0221-.4849-1.6041-2.9962-2.2101-2.1949-4.4478Z"/>
    <path class="cls-159" d="M291.4901,87.5079c-6.6008-1.7846-12.959.1009-19.3316,1.3798-1.9687.3951-3.8236,1.3561-5.7305,2.058-6.1264-.8999-12.3516.5553-18.4426-.6702-4.0662-.8181-8.8367.4218-11.8459-3.7595q4.622-16.002,21.0275-15.9582c26.9589.064,53.9179.1208,80.8768.1806-11.4867,7.0549-24.0315,11.2245-37.2619,13.3837-2.7902.4554-4.7547,2.1105-6.9894,3.4406-.7837.657-1.5517.6602-2.3025-.055Z"/>
    <path class="cls-160" d="M400.5896,674.2516c-3.1223-.5446-1.6205-1.9115-.7711-3.4856,12.248-22.6987,22.6988-46.1915,30.8995-70.6544,1.185-3.5348,1.8637-7.2389,2.7769-10.8646,5.7178-2.2764,6.0178-2.1263,5.4483,3.2959-1.8678,17.7875-3.7851,35.5699-5.6835,53.3542-2.9058,8.3101-5.8736,16.5911-11.1721,23.7793-7.1661,1.5251-14.3321,3.0502-21.4981,4.5753Z"/>
    <path class="cls-174" d="M373.1433,308.0108c2.0201,2.2259,4.1652,4.3033,6.8456,5.7436,1.0076-.0969,1.9138.271,2.5348.9744,10.5139,11.9098,21.9114,23.0083,32.2558,35.0727.0263.2421.0959.4711.2079.6868-10.5199.0126-21.0388.0252-31.5581.0379-3.9227-8.5088-7.636-17.1219-11.822-25.4992-4.9444-9.8953-10.2647-19.6043-15.4969-29.3539-1.2389-2.3085-2.7825-4.4542-3.3075-7.0876,2.52-1.0418,3.0815,1.3401,4.2685,2.5091,5.5438,5.4602,10.3192,11.6514,16.0719,16.9162Z"/>
    <path class="cls-98" d="M359.7097,70.7376c8.3184-.0627,16.6421.0278,24.9525-.2621,3.4024-.1187,3.7919,1.1276,3.0365,3.9416-1.1712,4.3624-2.1506,8.7762-3.2113,13.1682-.8122,1.5804-1.6946,3.1129-2.9757,4.3776-5.3562,5.955-11.9778,10.7284-16.3768,17.5765-.4308.7373-.9802,1.3698-1.6224,1.9317-1.894.8098-3.239,4.3254-5.9424,1.2215-.9217-2.9106-.6514-5.8311-.108-8.7607,1.2608-8.5665.2483-17.1801.5957-25.7615.1039-2.5673-.4806-5.3075,1.6519-7.4328Z"/>
    <path class="cls-75" d="M128.0395,476.7798c45.568.4825,77.2563,24.4975,102.1058,60.107-1.9604.6996-3.9205,1.3995-5.8807,2.0994-7.3518-7.2613-13.6964-15.4071-21.3286-22.4964-20.2963-18.8527-43.7611-30.4601-71.2271-34.0423-1.6097-.2099-3.3938.0306-4.6583-1.3892-.1534-1.5376.021-2.9995.9889-4.2784Z"/>
    <path class="cls-116" d="M381.2165,90.8668c1.0903-1.0939,2.1806-2.1877,3.2708-3.2815-1.6075,10.3049-3.6884,20.5065-6.6685,30.5109-8.5903,7.1199-14.4214,16.6128-21.5352,25.0031-2.1523-1.8804-.8506-4.4506-1.3629-6.6229-.3953-.1141-.7606-.1134-1.1309.0739-1.1227.6835-2.1189,1.8018-3.6296.9707-.7216-.745-1.1439-1.627-1.2666-2.6552.1585-2.4358,1.87-4.8183.2279-7.3127-.3921-1.3536.0751-2.5191.7891-3.6307.3062-.396.6669-.7426,1.0595-1.052,1.7597-1.0186,2.6451-2.7904,3.7463-4.3826.6468-.5366,1.3031-.7456,1.9839-.0601.6446.9417.6469,2.0382.6538,1.8149-.0097-.178-.0114-1.6534.1202-3.1354,1.0415-3.013,4.3058-4.1778,5.7139-6.8838.3225-.3131.6449-.6262.9674-.9393,3.7552-5.1757,8.818-9.1092,13.1041-13.7795,1.3733-1.4964,3.2024-2.613,3.9569-4.6379Z"/>
    <path class="cls-166" d="M127.0506,481.0582c40.6333,2.4008,70.4807,23.8186,95.3404,54.0048.9243,1.1223,2.1817,2.175,1.873,3.9235-.3469.0257-.6646.1368-.9533.3331-2.7741.3768-3.8553-1.8228-5.4028-3.4309-19.5434-20.3082-40.6031-38.5153-68.0731-47.3953-7.5187-2.4305-15.2992-4.0527-22.9595-6.0457.0584-.4631.1168-.9263.1752-1.3895Z"/>
    <path class="cls-60" d="M106.3961,225.0214c-3.4298,10.7323-7.8287,21.0676-13.5448,30.7651-2.908,4.9334-4.7159,10.6282-9.3328,14.476,2.7857-13.95,5.5858-27.8977,8.3428-41.8539.4331-2.1925,1.5362-3.1277,3.8554-3.087,3.557.0625,7.1194-.1846,10.6795-.3003Z"/>
    <path class="cls-104" d="M156.0314,431.4956c13.915,1.3476,26.6143,6.3157,38.7709,12.9375,24.2825,13.2267,43.3682,32.3066,60.4975,53.5845.8815,1.095,1.9759,2.2538,1.4832,4.439-6.3111-7.3249-11.9697-14.7865-18.5658-21.3005-6.8049-6.7202-14.2857-12.8259-21.8873-18.6588-18.4921-14.1897-39.0401-24.236-62.0888-28.4564-5.501-1.0073-11.3152-.3073-16.9854-.3927.0133-.396.0265-.792.0398-1.1881,6.1886-1.4205,12.5452.4148,18.7359-.9645Z"/>
    <path class="cls-67" d="M197.381,673.1409c-4.9982,8.4537-10.8579,16.2813-18.0192,22.9928-4.9949,4.6812-9.5802,9.5333-12.2283,15.9413-5.038-3.1275-9.9998-6.3537-14.2529-10.5372,6.8525-3.6844,13.9064-7.0446,20.5071-11.1347,8.375-5.1896,17.7282-9.1169,23.9933-17.2622Z"/>
    <path class="cls-176" d="M159.7905,552.707c-3.5017.5-6.9215,1.6923-10.5354,1.2422-1.6122.1944-2.9352-.5437-4.2192-1.3485-8.197-5.138-16.9991-8.9683-26.117-12.1274-1.5909-.5513-3.2911-.9896-4.1153-2.7214.6883-3.1447,1.3766-6.2893,2.0649-9.434,5.7401-1.198,10.1416,2.4604,14.7033,4.6276,8.86,4.2092,17.3871,9.1848,25.0219,15.4672,1.3815,1.1368,3.3776,1.9444,3.1968,4.2943Z"/>
    <path class="cls-89" d="M159.7905,552.707c-12.8932-10.6157-27.1353-18.8624-42.9225-24.392-.2627-1.4322.2084-2.6962.9132-3.9057,17.8539,4.2395,33.8473,12.3451,48.4411,23.3308,1.0228.7699,1.8112,1.8505,2.7086,2.7866-2.8222,1.6664-6.0988,1.4316-9.1404,2.1803Z"/>
    <path class="cls-128" d="M140.4815,556.086c-9.8063,1.4603-19.3485,4.5701-29.3688,4.6942.823-5.5174,1.6459-11.0351,2.4688-16.5528,1.5964-1.1577,3.2577-.5838,4.8318-.0502,6.9305,2.349,13.5659,5.3768,19.9478,8.9479,1.1138.6232,2.3367,1.3178,2.1203,2.9609Z"/>
    <path class="cls-101" d="M140.4815,556.086c-8.2809-5.5076-17.492-8.9107-26.9004-11.8624.4069-2.1536.8133-4.311,1.2211-6.4701,12.3874,3.4827,23.9752,8.6618,34.4532,16.1959-2.6737,1.7412-5.7825,1.6982-8.7739,2.1365Z"/>
    <path class="cls-23" d="M356.2751,118.2146c-.3881.3518-.7763.7037-1.1645,1.0555-1.2368,1.0677-1.7686,4.1819-4.3103,1.4804-.7134-3.9508-1.7416-7.9304,1.0009-11.5828,2.2105-7.1812.2768-14.5652,1.0678-21.7985.6057-5.5393-1.9618-11.2728,1.0724-16.6367,1.1447.0012,2.2894.0024,3.4341.0036,2.414,6.4246.5129,13.0967,1.128,19.62.7031,8.1489-1.2298,16.2184-.7759,24.3607.1585.6181.2204,1.2487.188,1.8862-.0945.9939-.3104,1.8681-1.6403,1.6116Z"/>
    <path class="cls-46" d="M340.6267,183.0659c8.2902-21.2287,21.3294-39.473,35.7828-56.8285-.1193,2.6803-.7987,5.2124-2.0145,7.6001-3.5299,2.8256-6.2506,6.2701-7.9842,10.4661-1.7884,4.7179-5.2436,8.426-7.7239,12.726-5.5915,6.6769-8.9987,14.5972-12.6813,22.3503-1.0302,2.1687-1.4269,4.6805-3.7612,6.0187-1.6886.019-1.1314-1.5178-1.6177-2.3327Z"/>
    <path class="cls-4" d="M228.8094,108.1375c10.5189,2.787,21.195,2.4834,31.8904,1.553,3.1746-.2762,6.3339-.7549,9.4889-1.2178,1.3043-.1914,2.4085.1118,2.6367,1.4086.2941,1.6716-1.0036,2.3336-2.3975,2.5063-11.6263,1.441-23.3023,1.968-34.9634.8144-2.7954-.2765-5.6194-.4399-8.4145-.7983.5866-1.4231,1.173-2.8446,1.7594-4.2661Z"/>
    <path class="cls-105" d="M236.1395,86.5161c8.0017,2.2396,16.2715,2.4696,24.4653,3.2835,1.9682.1955,4.1973-.8092,5.8239,1.1463-10.7566,1.5553-21.5627,1.5013-32.382,1.0046.6979-1.8129,1.3954-3.6236,2.0929-5.4344Z"/>
    <path class="cls-87" d="M221.3161,129.4944c4.8323.5052,9.8284-.9658,14.523,1.2013.3978,1.034-.0325,1.8883-.5854,2.7189-3.714,3.9858-10.0613,4.6646-15.9658,1.712.6761-1.8774,1.3522-3.7548,2.0283-5.6322Z"/>
    <path class="cls-25" d="M232.4282,149.9368c-5.2341-2.3794-10.3001-5.1637-15.9246-6.603-.2225-1.4474.5106-2.5574,1.2951-3.6491,4.1993-2.5077,8.5629-1.8639,12.9528-.6837.8741.5238,1.1809,1.3279,1.1097,2.2996-1.4113,2.6416-3.964.5431-5.6362,1.3388.8254-.0948,1.8354.0134,2.8429-.0204,2.8157.9867,2.4674,3.9734,3.76,5.9268.0552.5171-.0802.9809-.3997,1.391Z"/>
    <path class="cls-80" d="M232.3178,97.8135c9.2037,2.7369,18.6684,2.1867,28.086,2.2225,3.1403.0119,6.2806.0019,9.4137.5075-12.8348,3.9725-25.5644.2736-38.3324-.6051-.1356-.8709-.1398-1.6889.8326-2.1249Z"/>
    <path class="cls-62" d="M231.2213,142.0702c.0634-.7316.1268-1.4632.1901-2.1948-1.1665-2.7302-3.6992-1.7145-5.7125-2.026-2.2681-.3509-4.8014.4996-6.6611-1.5718.083-.3827.1661-.7655.2496-1.1497,3.128.0324,6.2871-.1968,9.374.1743,3.0703.3691,4.7642-.9619,5.9843-3.4504,2.8936,2.6472,7.0153,1.0927,10.1385,2.9523.3812.4317.5064.9375.4129,1.5-2.6432,3.0388-7.3405-.1781-9.8539,3.2247-.1577.6703-.2158,1.3529-.1739,2.0379.1581,1.7107,2.3441,2.19,2.4185,3.9533-.0263.4965-.1897.9425-.4659,1.3532-1.4397.9967-3.0768,1.4974-4.7545,1.8963-1.1512-1.6712-3.5472-2.8693-2.1043-5.5264.1683-.5142.4946-.8995.9581-1.1729Z"/>
    <path class="cls-93" d="M430.8895,669.5009c-2.1553.0373-4.3106.0747-6.466.1121,1.0689-6.0851,2.4601-12.0125,7.8379-15.9895.3586,5.3629-.9723,10.58-1.372,15.8774Z"/>
    <path class="cls-142" d="M357.4396,91.0088c-.0215-6.7576-.043-13.5152-.0644-20.2727.7779.0005,1.5557.0011,2.3339.0016-.0379,9.3636-.0448,18.7276-.1395,28.0907-.0202,1.9984.6025,4.1573-.9836,5.9167-1.723-4.4671.3872-9.2534-1.1463-13.7363Z"/>
    <path class="cls-180" d="M432.2615,653.6235c-3.5421,4.8755-5.1602,10.6923-7.8385,15.9898-.7779.0208-1.5565.0419-2.3351.063,3.0585-8.2384,6.6282-16.2372,11.172-23.7793.5612,2.6908-.3547,5.1911-.9983,7.7265Z"/>
    <path class="cls-170" d="M358.4148,231.4944c-1.8928,5.2486-.5712,10.7394-1.2138,16.0822-.358.5285-.7408.547-1.1482.0556-1.829-7.3929-.9807-14.7662.1628-22.137.7409-.0687,1.4817-.1378,2.2219-.2069.0401.3017.1406.5818.3012.8405,1.2917,1.8729,1.3611,3.6721-.3239,5.3656Z"/>
    <path class="cls-17" d="M368.7705,160.0772c-5.3165,5.3919-8.0611,12.4519-12.1219,18.6582-.9096,1.3901-1.7951,2.7958-2.6918,4.195,2.8559-10.5648,9.1809-19.0913,16.0688-27.2876-.1455,1.5549-.1642,3.1461-1.255,4.4344Z"/>
    <path class="cls-48" d="M219.0378,136.2776c3.1892.0476,6.3877-.0354,9.564.1923,1.8741.1344,4.6428.0073,2.8087,3.4044-4.5368-.0619-9.0745-.1249-13.612-.1888.4133-1.1366.8263-2.2723,1.2393-3.4079Z"/>
    <path class="cls-117" d="M156.0314,431.4956c-6.1433,2.2977-12.4895.665-18.7359.9649.1181-.4075.2361-.8146.3527-1.2212,6.1267.0856,12.2549.1709,18.3832.2562Z"/>
    <path class="cls-41" d="M233.6413,118.1174c-2.6317-.3707-5.2634-.7415-7.895-1.1131-.0884-.8783-.2229-1.7708.7525-2.3014,3.4894.9232,7.2465.6159,10.5708,2.2967-.8789,1.1804-2.4934.1091-3.4284,1.1179Z"/>
    <path class="cls-33" d="M225.3297,118.1488c2.4159.6643,4.8317,1.3287,8.6673,2.3834-4.1451,0-6.8028,0-9.4607.0005-.1058-.9173-.1525-1.8154.7934-2.3838Z"/>
    <path class="cls-134" d="M255.0906,289.6411c2.2343,4.9386,4.4687,9.8771,6.703,14.8156-7.4216,10.772-15.2948,21.1086-26.8999,27.8472-4.9757-1.0345-9.9513-2.0691-14.927-3.1036.5643-3.9374,4.2301-5.5018,6.4713-8.0734,10.1966-11.7,17.8412-25.0262,25.4129-38.4251,1.0711,2.3062,2.1421,4.6123,3.2132,6.9185-1.2898,1.9917-1.791,4.4239-3.7507,6.5483,2.0913-2.0449,2.4862-4.5392,3.7771-6.5274Z"/>
    <path class="cls-77" d="M263.2049,308.7825c2.1906,5.35,4.3811,10.7,6.5717,16.05-4.3675,5.5792-9.0279,10.8195-15.7931,13.6248-1.1202-.4412-2.2404-.8825-3.3607-1.3237,1.9631-3.6833,5.4929-5.6461,8.5414-7.8755-3.5848,1.8959-6.2649,5.2357-9.6554,7.6727-1.5525-.6341-3.1049-1.2682-4.6574-1.9023,1.302-2.982,4.7433-3.595,6.3634-5.7316-2.1913,1.819-4.8238,3.5981-7.3741,5.4867-2.2827-.7246-4.5654-1.4492-6.8481-2.1738-.3382-2.2884,1.6747-2.8124,2.9943-3.4325,8.3666-3.9315,14.5971-10.2034,19.9249-17.5467.8598-1.185,1.6545-2.5258,3.2931-2.848Z"/>
    <path class="cls-42" d="M251.851,282.7017c-3.0283,10.7149-9.5434,19.5589-15.793,28.4442-4.6319,6.5853-9.6174,13.0279-16.0917,18.0544-1.5875-.0819-3.1756-.1638-4.7673-.2465-1.8014-2.4737.5494-3.2037,1.8478-4.343,13.9041-12.2011,25.1854-26.4452,33.5652-42.9534.4131.3482.8261.6962,1.239,1.0442Z"/>
    <path class="cls-164" d="M263.2049,308.7825c-5.9881,10.9615-15.2526,18.3255-26.2127,23.8272-.6989-.1018-1.3983-.2036-2.098-.3056,10.0151-8.2716,17.8481-18.6471,26.8998-27.8474.4701,1.4419.9405,2.8838,1.4109,4.3258Z"/>
    <path class="cls-65" d="M271.256,329.1817c1.4857,3.2401,2.8525,6.5195,3.3393,10.0897-1.8272,3.1279-4.5299,4.7631-8.1777,4.7869-3.3385-.7578-6.176-2.5911-9.1032-4.232,3.5285-5.0105,8.6779-7.9022,13.9416-10.6445Z"/>
    <path class="cls-144" d="M271.256,329.1817c-3.8939,4.534-9.0892,7.3662-13.9431,10.6437-1.1119-.4489-2.5758-.0483-3.3298-1.3688,5.3706-4.4186,9.8923-9.8196,15.7937-13.624.4928,1.4496.9859,2.8993,1.4791,4.3491Z"/>
    <path class="cls-178" d="M266.4176,344.0583c2.7256-1.5951,5.4511-3.1901,8.1772-4.786,2.4585,3.435,3.0172,7.4177,3.3107,11.4768-3.7676-2.3354-8.0877-3.7248-11.4879-6.6907Z"/>
    <path class="cls-99" d="M181.4585,548.1566c-4.4701-5.5322-10.4396-9.3178-15.936-13.6545-.2654-.9746-.1392-1.5433,1.0495-1.0103,6.0031,4.529,12.9644,7.954,17.0124,14.7358-.7086-.0238-1.4172-.0474-2.1259-.071Z"/>
    <path class="cls-96" d="M249.5088,336.9308c3.1481-4.7503,7.9686-7.5378,12.568-10.6061-2.6593,4.8292-7.7778,7.0625-11.4541,10.809-.3711-.0677-.7425-.1353-1.1138-.2028Z"/>
    <path class="cls-6" d="M243.8407,334.7835c2.6915-4.1004,7.2458-5.9975,10.7561-9.1476-2.0835,4.3615-5.9375,6.8532-9.7457,9.3924-.3647.0343-.7016-.0474-1.0103-.2449Z"/>
    <path class="cls-47" d="M232.3674,148.7695c.3844-2.9477,2.8355-2.0089,4.5667-2.4238,5.2596-2.6251,10.8877-.837,16.319-1.3689,2.9252-.0487,5.8847.3257,8.7426-.6648,1.9377-.3476,3.8541-.4698,5.6285.6228,2.5334,5.3968-.2537,10.4708-.5071,15.0865.9772-3.6081,1.2822-7.9945,1.7091-12.3658.0517-2.1273,1.182-3.5717,2.9079-4.6457.8245-.4573,1.6784-.8608,2.5941-1.1049,6.9256-1.8461,7.8212-.8711,6.6273,6.1821-.9446,5.5806-1.155,11.2844-2.7205,16.7647,1.8291-6.6902,2.5314-13.6133,3.4149-20.4388.4723-3.6485,1.8659-5.4424,4.9081-6.6221,2.9908-.9828,5.7932-1.5279,6.358,2.859-.4652,8.6051-2.3136,17.0373-3.3302,25.5814,1.8683-9.9587,2.616-20.0948,4.6507-30.0399,1.6676-2.0007,3.2869-4.2534,5.9869-1.2403.939,6.9709-1.3812,13.6363-2.009,20.465-.3751,4.0796-1.2325,8.1191-1.6657,12.1976-.2061,1.9402-1.0152,4.0833.7002,5.8354,4.1663,2.4915,8.8409,4.0223,12.8668,6.7792.5101.2001,1.0058.4246,1.507.642,2.8012,1.0926,6.3807.66,8.0121,4.0572.3223.842.4592,1.7153.4689,2.614-.0216,1.2197-.2473,2.3763-1.0627,3.3423-5.026.6658-9.0855-2.1094-13.1816-4.1453-9.6266-4.7848-19.317-9.4096-29.3692-13.2032-5.4888-2.0715-10.2844-5.4443-15.6649-7.6706-9.4656-5.3091-18.9313-10.6182-28.397-15.9276-.0204-.3894-.0406-.7785-.0609-1.1676Z"/>
    <path class="cls-8" d="M260.8252,165.8647c8.4365,2.0201,16.0489,6.2079,24.007,9.4273,11.4583,4.6354,22.4879,10.3282,33.7005,15.5698,3.4675,5.0109,1.1216,10.6767,1.8147,15.9948-.2936,4.7367.5584,9.3113,2.0386,13.7915.7323,3.2166,2.8763,6.2771,1.1189,9.7781-5.9174-4.822-9.8006-11.3188-13.5018-17.7165-8.6518-14.9553-20.7506-26.4298-34.6008-36.3413-4.8704-3.4854-9.7187-7.0015-14.5771-10.5036Z"/>
    <path class="cls-112" d="M373.1433,308.0108c-7.9181-5.2863-13.5429-12.9693-20.3407-19.4257-8.3585-11.5452-16.1272-23.3942-19.3593-37.5756,3.8538,4.9663,7.7618,9.8967,10.3327,15.7051-.247,4.354,3.416,6.7566,5.0814,10.1551,3.6165,4.7566,6.9255,9.7659,11.3836,13.8317,4.3008,5.7698,8.6016,11.5397,12.9024,17.3095Z"/>
    <path class="cls-120" d="M248.409,277.0495c-6.2527,10.6066-11.9869,21.5608-20.5618,30.6105-1.0269.2613-1.5867.0597-1.1359-1.1437,5.6885-9.7912,11.3776-19.5821,17.0649-29.3739.8598-1.4803,1.7442-2.9341,3.4522-3.6018,1.0274.9564,1.0788,2.2411,1.1805,3.509Z"/>
    <path class="cls-64" d="M329.936,230.3081c.0278,3.8945.0556,7.7889.0831,11.6829-1.8533-1.9438-2.6259-4.418-3.3936-6.8944-.1046-1.4888-.9852-2.7764-1.1106-4.2646-.5922-2.2942-1.8268-4.5506-.3727-6.9506.4208-.3799.9133-.5251,1.4741-.4392,2.3303,1.6968.4644,5.4205,3.3197,6.866Z"/>
    <path class="cls-24" d="M326.491,231.449c-.1698,1.2236,1.4897,2.3799.1344,3.6473-1.0412-1.5562-2.0823-3.1125-3.122-4.6695-.758-3.0041-1.5174-6.0074-2.2769-9.0107.4562-.3484.9697-.4614,1.5328-.3744,3.1905,2.7714,1.5295,7.2804,3.7317,10.4073Z"/>
    <path class="cls-14" d="M145.1795,271.4915c2.6253-5.4271,8.0805-8.9178,10.1127-14.7507,1.0179-.3213,1.5278-.1142,1.1066,1.0617-1.1514,2.6376-2.3028,5.2752-3.4542,7.9128-1.9649,2.0677-2.1492,5.343-4.7414,6.9885-.4746.2268-.977.3377-1.5033.3424-.8623-.169-1.2997-.7563-1.5204-1.5547Z"/>
    <path class="cls-92" d="M137.0089,290.6588c-1.1586,1.8222-2.5567,3.4008-4.5052,4.4193-3.0969-2.1996-.7685-4.4462-.058-6.6789,1.5145-1.8268,3.0291-3.6536,4.5436-5.4804,2.3518,2.574,1.4886,5.1563.0196,7.74Z"/>
    <path class="cls-158" d="M145.1795,271.4915c.3189.3484.6377.6968.9566,1.0452.8876,1.4648.001,2.8095-.2727,4.2037-.1528.4866-.3526.9493-.5743,1.4071-1.068,2.3826-2.4916,4.575-3.6237,6.9205-.4018.7715-.8037,1.5429-1.2055,2.3144-4.6442-2.5783-.9213-5.3978-.2347-8.1297,1.0326-2.9814,3.1541-5.269,4.9543-7.7613Z"/>
    <path class="cls-123" d="M132.4457,288.3992c.6094,2.2218-1.1735,4.4642.0579,6.6797-1.5575,1.1776-3.1151,2.356-4.6727,3.5344-2.1483.6695-1.1447-1.6939-2.0971-2.1752,2.2373-2.6796,4.4746-5.3593,6.712-8.039Z"/>
    <path class="cls-26" d="M147.2671,272.476c2.7764-1.5127,2.7823-5.3474,5.6774-6.7607-1.3229,5.3403-4.5811,9.7637-6.9374,14.6145-2.7351-.3565-1.4424-1.9637-1.0263-3.2987l-.0272.0444c.9422-1.4473,1.0129-3.3321,2.3134-4.5995Z"/>
    <path class="cls-147" d="M140.2252,279.2528c1.0155,2.6823-2.7107,5.5012.2347,8.1288-.8101,1.4506-1.9478,2.556-3.4509,3.2773-.0065-2.581-.0128-5.1618-.0194-7.7414.6303-1.6155,1.8776-2.6889,3.2356-3.6648Z"/>
    <path class="cls-72" d="M156.3989,257.8025c-.3694-.3546-.7387-.7093-1.1073-1.0628.6462-3.9609,3.0616-7.0758,4.9937-10.45.4941,4.4619-2.31,7.7798-3.8864,11.5128Z"/>
    <path class="cls-172" d="M144.9809,277.0312c.0977,1.1764-.3243,2.5142,1.0269,3.2998-.874,2.1035-2.5458,3.4776-4.3431,4.7367-.1366-3.1901,1.2304-5.7613,3.3162-8.0365Z"/>
    <path class="cls-68" d="M125.7338,296.4382c.6995.7251,1.3991,1.4503,2.0979,2.1753-.4794.9295-1.343,1.5099-2.17.8539-1.0812-.8577.1389-1.9991.0721-3.0292Z"/>
    <path class="cls-127" d="M224.1163,293.9025c3.7206-6.0734,6.8953-11.2555,10.3983-16.9737-.8865,7.3619-3.778,12.1695-10.3983,16.9737Z"/>
    <path class="cls-171" d="M226.7114,306.5163c.3788.3815.7576.763,1.1361,1.1441-.52,1.2185-1.2872,2.2067-2.8663,2.8919-.5359-1.9333.7004-2.947,1.7302-4.036Z"/>
    <path class="cls-151" d="M166.572,533.4918c-.3503.3371-.7006.6743-1.0502,1.0109-1.2668-.4521-2.3124-1.161-3.0082-2.7776,1.948-.5204,2.9701.7122,4.0584,1.7667Z"/>
    <path class="cls-185" d="M305.0905,117.09c4.3318-3.451,8.6636-6.902,12.6762-10.0986,2.8631.462-1.4976,3.5785,1.9913,3.3843,1.849,2.386.1307,4.8469.1741,7.2709-.5997,2.4969,1.2099,5.4724-1.4661,7.5648-1.5127.2442-2.1967-.9688-3.1125-1.752-1.9135-1.0453-1.4521.9123-1.9927,1.6021-2.6702,2.7821-5.0439,6.2411-9.7858,4.2526-1.8022-4.3591-1.5669-8.4683,1.5154-12.2241Z"/>
    <path class="cls-39" d="M336.8585,93.3135c.3369-2.8775,2.4297-4.354,4.6071-5.7629,1.4673,1.2838,1.4649,3.0261,1.4986,4.7579-1.5092,16.082-1.5795,32.2641-3.2443,48.3364.2373,1.7266-.4603,3.1266-1.5422,4.3971-.3887.5244-.8597.9597-1.4021,1.3238-1.4324.8133-2.4953.5228-3.1303-1.0498.2537-6.5635.0327-13.2084.8271-19.673.974-7.9261.6382-15.8039.8661-23.701.0043-1.3248-.0047-2.6516.1042-3.9741.2899-1.6052.5047-3.2359,1.4158-4.6543Z"/>
    <path class="cls-91" d="M244.9168,135.277c-2.3831-.0188-4.7689-.117-7.1485-.0345-2.4578.0853-3.2475-1.1903-3.122-3.3911.3973-.3851.7951-.7705,1.1928-1.1559,7.312-2.3159,15.0028-.3895,22.4489-2.1176,4.1568-.9647,8.2689-2.7056,12.7002-2.3959,1.8129,2.5275.5592,4.7615-1.6148,5.5059-7.8885,2.7015-15.8933,5.2314-24.4567,3.589Z"/>
    <path class="cls-36" d="M341.4712,92.1092c-.0018-1.5194-.0036-3.0389-.0055-4.5585,1.1838-4.834,5.5078-6.5463,9.0246-9.0609,1.3988,6.3034.558,12.69.5422,19.0257-.0218,8.7873.7366,17.5994-.4557,26.3684-.3603,1.0892-.7206,2.1784-1.081,3.2675-.587.4492-1.1259.3974-1.6171-.1556-.1991-1.8935-.2883-3.7846.0945-5.6698.6537-4.2146.1633-8.4558.3146-12.6828.021-7.7211-.0424-15.4406.0318-23.1599-.1529,13.9305.2752,27.8695-.5627,41.7905.1577.679.0846,1.3323-.2162,1.9582-.5005.5706-1.0872.6765-1.7582.3206-2.5587-3.7785-.4063-8.3058-1.9544-12.2451-.4182-1.79-.4472-3.5923-.1216-5.3949,1.5835-6.2059.5763-12.531.7471-18.8027.0313-1.148-1.0452-.5116-1.6874-.4473-.5163-.0055-.944-.1919-1.2952-.5534Z"/>
    <path class="cls-150" d="M244.9168,135.277c6.8311-1.1639,13.6693-2.2876,20.4899-3.51,3.0932-.5543,6.0547-1.4004,5.5821-5.5853.4047-.0092.81-.0187,1.2152-.0282,4.5598,2.9002,7.7152-.3564,11.1152-2.5385,1.6517-.5054,3.1148-.0119,4.5063.8521,1.521,2.0121-1.7344,3.4607-.6397,5.4327-.4274,1.9949-2.0963,2.8007-3.5995,3.7735-.4743.231-.9697.401-1.4765.5441-3.6864,1.6506-9.4998.3677-9.5555,6.9715.0292,1.0348.046,2.0704-.432,3.0326-1.4352.6957-2.2021,1.8325-2.2687,3.4314-2.1705.7171-1.1939-1.7799-2.2511-2.1998-1.8787-.0076-3.7573-.0153-5.636-.0229-.2819-.4898-.2684-.9713.0388-1.4472,2.7168-1.2703,6.0912-1.843,6.2032-5.8537.0024-.9575-.191-1.8608-.7966-2.6349-5.3671-.7776-10.3831,1.2877-15.577,1.8014-2.408.2381-4.8792,1.1294-6.9231-1.0168.0073-.334.0089-.668.005-1.002Z"/>
    <path class="cls-168" d="M322.0497,108.0398c3.4131-4.1638,7.0194-8.1306,11.4737-11.2329.6478.5753,1.0056,1.3023,1.1378,2.1499.3222,2.6588-1.1988,4.6602-2.4145,6.773-.931,1.6059-2.1593,2.9508-3.6322,4.0783-1.4739,1.1179-2.5218,2.6666-3.9089,3.8808-.7823.5015-1.5908.5766-2.4359.1614-1.8503-1.872-1.1988-3.8352-.2201-5.8104Z"/>
    <path class="cls-153" d="M233.6413,118.1174c.8386-1.302,2.2108-.9697,3.4275-1.1172,8.6805-.249,17.3115,1.5924,26.0264.4842-7.9656,4.3111-16.218,2.9-24.4743,1.4529-1.6568-.2904-3.3195-.5474-4.9795-.8198Z"/>
    <path class="cls-155" d="M283.5731,123.9518c-1.5242,5.0627-6.3583,4.1736-9.9477,5.2153-1.511.4385-1.2804-1.7988-1.4215-3.0137,3.239-2.8532,7.4049-3.3143,11.3349-4.3842.6771.7171.7104,1.4443.0343,2.1826Z"/>
    <path class="cls-59" d="M350.5769,123.8839c-.0283-15.1313-.0566-30.2627-.0858-45.394,2.6033.2686,1.1344,2.2391,1.1523,3.275.1583,9.1322.1291,18.2677.1565,27.4025-.001,4.158-.0032,8.3158-.0053,12.4735.5561.8378.5964,1.6048-.3082,2.2422l-.4548-.0129-.4548.0139Z"/>
    <path class="cls-175" d="M283.5731,123.9518c-.0114-.7285-.0228-1.457-.0343-2.1841,3.5866-1.6609,7.2006-3.2359,11.2225-3.5098,1.0905.7982,1.109,1.864.7615,3.0234-1.0218,1.7643-3.0044,2.3561-4.4339,3.6303-.9716.5771-1.9507,1.095-2.9715.093-1.6277.1356-3.1254-.2892-4.5443-1.0529Z"/>
    <path class="cls-126" d="M285.8174,115.8981c-3.2464,3.6043-7.3159,3.9017-13.3038,2.8472,4.8322-3.1412,8.2247-5.9013,13.2485-4.0757.2712.2613.3697.5304.2958.8073-.0749.2807-.155.4211-.2404.4211Z"/>
    <path class="cls-82" d="M285.8273,108.0175c-2.1306,2.5904-5.4591,2.1105-8.1987,3.1316-1.1283.4205-2.3057-.197-2.6879-1.4219-.5339-1.7115.7234-2.4334,2.0594-2.6787,2.9197-.5359,5.8737-.8855,8.8137-1.3111.7097.7559.6654,1.5162.0134,2.2801Z"/>
    <path class="cls-181" d="M305.0905,117.09c-.9386,4.1248-1.3629,8.2883-.9454,12.5153-.02.248-.0401.4959-.0557.7455-.2303.7404-.6227,1.3669-1.2807,1.8075-.5073.1269-1.0048.0953-1.4952-.0877-.681-.4054-1.1807-.9707-1.5026-1.6937-.8674-2.2266-.0494-4.4757-.0958-6.7171-.0246-1.5347.3482-2.9797.9886-4.3656.2473-.4492.5901-.8105,1.0207-1.0887l3.3661-1.1154Z"/>
    <path class="cls-187" d="M323.2834,96.3241c4.1299-4.3598,8.2598-8.7195,12.3897-13.0793-.9283,7.1441-6.8903,9.8885-12.3897,13.0793Z"/>
    <path class="cls-11" d="M285.8174,115.8981c-.0181-.4086-.0362-.8172-.0548-1.2271,1.3288-3.9896,5.6413-3.0762,8.2482-4.9817.6755-.4938,1.5738-.2065,1.7263.6594.115.6526-.0293,1.7369-.466,2.0377-2.8366,1.9528-5.4591,4.6367-9.4537,3.5118Z"/>
    <path class="cls-7" d="M310.8104,104.553c-1.4338-.5483-3.2684,2.4356-4.2572-.1856-.7019-1.8608,1.526-2.2232,2.6894-2.9894,3.249-2.1396,6.5351-4.223,10.5864-6.8305-1.719,5.3338-7.2967,5.9922-9.0621,10.0341l.0434-.0286Z"/>
    <path class="cls-186" d="M295.0382,96.8026c-5.6931,1.4622-11.3862,2.9243-17.0793,4.3865,4.8233-4.6097,11.0792-4.2242,16.7909-5.7221.0961.4452.1923.8904.2884,1.3356Z"/>
    <path class="cls-70" d="M285.8273,108.0175c-.0045-.7601-.0089-1.5203-.0134-2.2803,2.8666-2.1722,6.1061-3.322,10.5209-3.9838-2.9871,4.172-5.99,6.4779-10.5075,6.264Z"/>
    <path class="cls-138" d="M322.0497,108.0399c.4723,1.8786-.6496,4.0641,1.0987,5.6971.9371,1.8792-.6753,2.7076-1.5737,3.8361-.8363.6005-1.6735,1.2189-2.7818.6376.3226-2.6122.6451-5.2245.9664-7.8359.7626-.7777,1.5265-1.5564,2.2904-2.335Z"/>
    <path class="cls-110" d="M235.9012,123.0077h15.5631c.0025.1719.0051.3439.0076.5158h-15.5635c-.0024-.1719-.0048-.3439-.0072-.5158Z"/>
    <path class="cls-184" d="M291.4901,87.5079c.7673.0184,1.5346.0367,2.3022.0551-3.709,2.9345-8.3439,2.0307-12.4878,3.1984,3.1554-1.9249,6.4487-3.3264,10.1856-3.2535Z"/>
    <path class="cls-148" d="M299.4948,110.653c-1.1187.0947-1.1333-.749-1.0234-1.4251.261-1.6043,1.406-2.6592,2.841-3.0388,1.1213-.2966,1.5539.71,1.3352,1.7464-.3513,1.6653-1.7075,2.249-3.1528,2.7175Z"/>
    <path class="cls-103" d="M311.9444,104.6245c2.3877-1.6645,4.7755-3.3289,7.1631-4.9934-1.1979,3.4628-3.9897,5.0242-7.1578,6.1397-.3396-.2532-.4534-.5072-.342-.7626.1115-.2556.2234-.3836.3367-.3836Z"/>
    <path class="cls-173" d="M294.7904,121.4925c-.009-1.0785-.018-2.157-.0281-3.235.7968-.3943,1.5946-.7892,2.3924-1.184,1.0781.8835,1.3084,2.1081,1.3825,3.4008.0221,1.3058-.2016,2.5494-.951,3.6564-.8698.7059-1.7996,1.5607-2.8603.4442-.9127-.9606-.5357-2.064.0644-3.0825Z"/>
    <path class="cls-83" d="M333.5529,98.9841c-.0099-.7269-.0198-1.4539-.0296-2.179,1.3294-.956,1.4611-3.055,3.3358-3.4921.0194,1.4847.0394,2.9688.0594,4.453-.8281,1.2161-1.6688,2.3973-3.3656,1.2182Z"/>
    <path class="cls-45" d="M297.2696,120.5475c-.0381-1.158-.0763-2.3161-.1146-3.4741.411-.3557.8222-.7114,1.2334-1.0671.8246,1.2383,2.2612.5511,3.3198,1.0532.0053.3819.0107.7638.0161,1.1458-.0404.4036-.0809.8073-.1215,1.2109-1.2554,1.0997-2.4422,2.4616-4.3333,1.1313Z"/>
    <path class="cls-43" d="M302.4294,100.9442c-.4008.2583-.9372.7744-1.5712.9628-.5933.1763-1.192-.3442-.8479-.9301.3242-.5518,1.017-.991,1.6431-1.2341.6714-.2607.9653.2078.7759,1.2014Z"/>
    <path class="cls-78" d="M311.9444,104.6245c.0017.3817.0035.7634.0052,1.1457-.5038.9811-1.5545,2.4085-2.2514,1.7913-1.3533-1.1985,1.1556-1.7937,1.112-3.0083.0001-.0001-.0429.0285-.0431.0285.3923.0143.7848.0286,1.1772.0429Z"/>
    <path class="cls-179" d="M301.7082,117.0596c-1.3807.5082-3.0913,2.053-3.3207-1.054,1.2278-.0268,2.553-.3633,3.3207,1.054Z"/>
    <path class="cls-102" d="M358.4148,231.4944c.1078-1.7894.2156-3.5788.3237-5.3669,19.2281.0013,38.4561.0013,58.2156.0013-6.3234,13.2795-11.8919,26.3374-13.6736,40.6766-.3515,2.8293-.3439,5.618-.4813,8.4262-.0828,1.6927.4487,3.6647-.2398,5.0393-5.9561,11.893-.841,22.8713,2.9422,33.7475,4.1888,12.0422,9.69,23.5801,16.257,35.3349-2.6652.1716-4.8194.3103-6.9764.4486-10.953-8.9819-19.9388-19.8952-29.6347-30.1089-1.8038-1.9002-3.4432-3.9561-5.1586-5.9394-2.8026-7.8458-9.324-13.8356-11.3634-21.9913-4.1788-16.7113-8.625-33.3911-9.0327-50.7929-.0742-3.1658-.7695-6.3171-1.1781-9.4751Z"/>
    <path class="cls-109" d="M329.936,230.3081c-3.1707-1.0759-2.9247-3.9882-3.4831-6.4682-2.312-1.5882-2.4169-4.0146-2.4376-6.46-.0437-5.1953-.0355-10.3908-.0069-15.5752-.0116-.5981.0096-1.2063.0403-1.805.0439-1.1263.1638-2.2535.3897-3.361.0975-.512.2514-1.0165.4275-1.5082.4514-1.1784.7948-2.3996,1.1768-3.61.4485-1.2207.7628-2.5174,1.8714-3.3749,2.4223-.6901,3.6086.6073,4.3146,2.6763-2.0652,10.8541-3.1871,21.8057-3.1751,32.8535.0024,2.2112.5734,4.4218.8823,6.6327Z"/>
    <path class="cls-85" d="M340.6267,183.0659c.3381.71.6761,1.4201,1.0142,2.1301.566.7859.5305,1.5427-.1103,2.2701-4.1661,14.0146-5.3402,28.3608-4.7844,42.9074-3.9135-16.1987-2.1146-31.9241,3.8805-47.3076Z"/>
    <path class="cls-106" d="M341.5306,187.4661c.0363-.757.0725-1.514.1096-2.2706,4.5642-8.1916,7.5357-17.196,12.84-25.018,1.0582-1.5604,1.6765-3.4476,4.0174-3.4315.3469.2754.4705.5601.3713.8542-.1008.2987-.2062.4481-.3167.4481-4.4829,10.1899-11.1957,19.281-14.6839,29.9852-.6627,2.0336-1.4667-.6156-2.3378-.5675Z"/>
    <path class="cls-100" d="M332.2288,190.8219c-1.3411-.9876-2.5508-2.2307-4.3889-2.251-2.8249-1.366-1.8843-3.6476-1.2717-5.7159.8854-2.9893,1.8149-5.9885,3.7952-8.5082,1.0497-.9468,1.822-2.7043,3.7021-1.3107,1.6416,2.9004.3164,5.6318-.281,8.4924-.3921,1.8772-1.3034,3.8615-.3945,5.8799-.387,1.1378-.7741,2.2756-1.1612,3.4134Z"/>
    <path class="cls-58" d="M353.9845,135.1225c.3696-.3349.7392-.6699,1.1088-1.0048,1.7852,3.7588-.642,7.416-.2691,11.1407-1.745,2.3991-3.49,4.7982-5.2351,7.1973-2.8947-3.0033-.8404-6.684-1.387-10.0104.0976-1.1503.4107-2.2194,1.223-3.0859,1.8369-1.066,3.5881-2.2316,4.5594-4.237Z"/>
    <path class="cls-13" d="M343.5095,163.5723c-1.3954,2.3039-2.7907,4.6077-4.1861,6.9116-2.406-3.8.2734-7.797-.4649-11.6616.0426-.9069.2078-1.7922.5051-2.6503.5181-1.3815,1.4514-2.5383,2.1092-3.8509.7409-.8682,1.3642-2.1318,2.7813-.8867,2.2078,4.1954-1.2661,8.0439-.7446,12.1379Z"/>
    <path class="cls-56" d="M333.3899,187.4085c-2.9125-4.944,1.2137-9.8704.0371-14.8101-1.0019-1.0711-.9561-2.2988-.5432-3.5868.9059-1.2006,1.4917-3.2022,3.601-1.4684,2.2889,5.1044-1.3395,9.5302-1.6509,14.3382-.4813,1.8424-.9627,3.6848-1.4441,5.5271Z"/>
    <path class="cls-88" d="M360.241,290.7013c-6.1243-2.6516-8.3754-8.7452-12.07-13.556-.3823-1.1921.1493-1.4503,1.203-1.175,1.0941,1.2322,2.1882,2.4644,3.2819,3.6976,2.3427,3.8056,5.78,6.8594,7.5851,11.0333Z"/>
    <path class="cls-108" d="M340.2589,158.0952c.6053,4.199-.5197,8.2674-.936,12.389-.4981,1.4519-.9967,2.9039-1.4952,4.356-2.8782-.7041-1.35-3.0076-1.3402-4.4489.0172-2.5293.1376-5.0661.0379-7.6069-.0078-.6475.0339-1.2887.1042-1.9322.6068-1.7093.5995-4.2375,3.6294-2.757Z"/>
    <path class="cls-162" d="M358.5523,158.0483c-.0182-.4338-.0363-.8677-.0546-1.3019,1.8004-4.6796,4.2145-8.9692,7.9135-12.4428,2.4624,2.1727-.4156,3.2786-1.171,4.4395-2.0773,3.1927-3.6352,6.8041-6.688,9.3052Z"/>
    <path class="cls-30" d="M338.0707,162.4283c.9472,4.157-2.874,8.2214-.2423,12.4115-.9993,2.3476-1.9977,4.6948-2.9953,7.0418-.5257-4.9993,1.7747-9.8181.9493-14.8364-1.222-1.6908-.8128-3.3276.1631-4.9472.7777-.337,1.4964-.2907,2.1252.3302Z"/>
    <path class="cls-143" d="M343.5095,163.5723c-2.6501-4.1736,1.1815-8.269.1503-12.4231.0894-1.923.6213-3.1956,2.8711-1.9499,2.227,4.0509-.9979,7.3889-1.455,11.0901-.5222,1.0943-1.0443,2.1886-1.5665,3.2829Z"/>
    <path class="cls-28" d="M345.076,160.2895c-.8749-3.8991,1.5455-7.531.9273-11.4093-.6871-.7265-.7313-1.5558-.3949-2.4474.7816-.96,1.6331-1.7064,2.9627-.9413.526,3.3768-.7081,6.6626-.5363,10.0234l-2.9588,4.7746Z"/>
    <path class="cls-145" d="M348.0347,155.5148c-2.3774-3.3754.3478-6.6486.2003-9.9793-.8248-1.5303-1.3773-2.9739,1.1023-3.4507,1.2101,3.4292-.5391,6.9297.2511,10.37-.5174,1.0207-1.0355,2.0404-1.5537,3.06Z"/>
    <path class="cls-27" d="M354.8242,145.2584c-2.2759-3.7709,1.2218-7.4025.2692-11.1411,3.7939,2.5459-.157,6.1149,1.1898,8.9829-.486.7188-.9725,1.4385-1.459,2.1582Z"/>
    <path class="cls-107" d="M349.374,275.9704c-.4008.3915-.8015.7831-1.2026,1.1748-1.9499-3.2724-5.7503-5.7664-4.3955-10.4297,1.8662,3.0843,3.7322,6.1696,5.5982,9.2549Z"/>
    <path class="cls-113" d="M349.4302,270.199c.7447,1.477,2.3423,2.5338,2.1954,4.4487-1.5291-1.091-4.4644-1.4882-2.1954-4.4487Z"/>
    <path class="cls-124" d="M357.5306,250.8339c1.2604,1.5858,1.2043,3.3048.576,5.1139-1.7195-.3442-1.9075-1.5092-1.7149-2.8934.6912-.5807.0942-1.8207,1.1389-2.2205Z"/>
    <path class="cls-66" d="M357.5306,250.8339c-.3798.7405-.7596,1.481-1.1391,2.221-.1125-1.8081-.2254-3.6158-.3384-5.423.3825-.0181.7654-.0367,1.1481-.0552.1098,1.0857.2196,2.1715.3295,3.2572Z"/>
    <path class="cls-130" d="M381.2165,90.8668c1.1699.9901.2005,1.6503-.4187,2.2547-5.5331,5.4008-11.0911,10.7762-16.6421,16.1609,3.9774-7.7177,11.1506-12.4828,17.0608-18.4156Z"/>
    <path class="cls-177" d="M357.4396,91.0088c2.2628,4.4212.4501,9.1815,1.1455,13.7347.0191,2.983.0373,5.9645.0556,8.9459.4313,1.3064-.4158,1.8086-1.4016,2.2234-2.3969-3.2526.0382-6.4784.0587-9.7175.032-5.0623.093-10.1243.1418-15.1865Z"/>
    <path class="cls-79" d="M357.2392,115.9128c.4665-.7411.9331-1.4822,1.4006-2.2233,1.5157-1.1551,3.0304-2.3101,4.5467-3.4655-.2945,3.1713-3.6371,4.2864-4.6951,6.9437-.3694.4407-.756.4562-1.1596.0467-.0308-.4339-.0617-.8677-.0925-1.3016Z"/>
    <path class="cls-152" d="M348.3458,127.2207c.3829-.0222.7658-.0444,1.1494-.068,4.7455,2.7209.3616,5.3712-.0629,8.0527.3736,2.2229-.7451,3.3241-2.8025,3.7224-2.032-.9931-1.9211-2.8637-1.936-4.6893.1-1.9141.9821-3.4361,2.3833-4.6934.0352-.3917.0704-.7834.1056-1.1751.4094-.3613.4942-1.0502,1.1631-1.1494Z"/>
    <path class="cls-74" d="M347.13,138.5958c.7674-1.13,1.5348-2.26,2.3023-3.3902.9532.489,1.1532,1.4026,1.3192,2.3354.4627.8468.4825,1.6164-.3893,2.2308-.3411.7705-.6822,1.5411-1.0241,2.3123-1.2849.8579-.9844,2.2202-1.1025,3.4503-.7425.3585-1.4845.7158-2.2265,1.0732-3.4715-3.1158-3.2558-4.6574,1.1209-8.0118Z"/>
    <path class="cls-53" d="M357.3317,117.2144c.3866-.0161.7733-.0322,1.1598-.0475-.2971,2.2779.7638,4.7813-1.1971,7.0013-2.1194-1.7814-.6131-4.0477-1.0197-5.9537.3526-.3333.7048-.6667,1.057-1.0001Z"/>
    <path class="cls-16" d="M367.6461,118.9043c-.233-2.9789,1.8022-4.0994,4.1479-5.0845-1.3826,1.6948-2.7653,3.3897-4.1479,5.0845Z"/>
    <path class="cls-136" d="M362.5809,118.4918c.1989-2.1303,1.5212-3.2466,3.6119-4.44-.2577,2.6509-2.1509,3.4157-3.6119,4.44Z"/>
    <path class="cls-16" d="M365.4139,120.5675c-.9324,2.5995-1.722,3.8718-3.7707,4.0597.2255-1.9707,1.6328-2.7076,3.7707-4.0597Z"/>
    <path class="cls-95" d="M351.4865,123.883c.1022-.7475.2044-1.495.3074-2.2424,1.106-.7896,2.2113-1.5793,3.3166-2.3698-.1453,2.3701-1.5708,3.7372-3.624,4.6122Z"/>
    <path class="cls-118" d="M350.3621,139.7718c.1287-.7437.2573-1.4875.3877-2.231,1.0792-.8052,2.1567-1.6106,3.2345-2.4172-.1661,2.3582-1.5132,3.7994-3.6222,4.6481Z"/>
    <path class="cls-21" d="M231.2213,142.0702c-.32.3905-.64.781-.9591,1.1722-2.2116.0007-4.4241.0007-6.6366.0007-.0174-.391-.0348-.782-.0521-1.1729h7.6478Z"/>
    <path class="cls-115" d="M269.8444,137.6104c-.4369,4.7839-2.5492,7.6152-7.8538,6.7259-2.6513,1.8165-5.8446.7805-8.6789,1.6461-5.4509-.2884-10.9354.6205-16.3597-.4871-.697-1.5308-3.6334-.8738-3.3199-3.3918,3.1715-2.6644,7.246-1.942,10.8381-2.4234,6.3517-.8512,12.6635-1.8839,18.9537-3.0503,2.3433-.4345,4.4719-.6244,6.4205.9806Z"/>
    <path class="cls-3" d="M244.9118,136.279c7.1396.1077,13.9834-1.8534,20.9584-2.9082,1.0712-.162,4.2652-2.3185,2.9078,1.8505-7.2605,3.8406-15.3568,3.989-23.2093,4.9828-3.9091.4947-8.0764,2.0542-11.9388-.508.1594-3.0821,2.3422-3.2872,4.6802-3.3065,2.2007-.0181,4.4011-.0723,6.6017-.1106Z"/>
    <path class="cls-9" d="M233.6299,139.6961c11.998.7185,23.6223-1.4918,35.1481-4.4748.3559.7956.7118,1.5912,1.067,2.388-8.8969,1.2247-17.8293,2.2413-26.6705,3.781-3.21.559-6.3732.3857-9.5429.7126-.0002-.8018-.001-1.6043-.0017-2.4068Z"/>
    <path class="cls-20" d="M236.952,145.4953c5.6786-.0037,11.3572-.0074,17.0359-.0112.4029.2329.5367.4655.403.6986-.1333.2324-.2672.3491-.4033.3491-5.6842-.0605-11.3684-.1211-17.0531-.1838.0132-.2856.0191-.569.0175-.8527Z"/>
    <path class="cls-38" d="M255.0906,289.6411c.3064,4.1275-2.7781,6.4507-4.9684,9.2507,1.1427-3.3581,1.7732-6.9858,4.9425-9.272-.0004.0004.026.0213.026.0213Z"/>
    <path class="cls-31" d="M304.1451,129.6053c3.5944-.9377,6.529-2.9099,8.9459-5.694.4808-.8897.9494-1.8018,2.2327-1.1946,1.537.0588,2.2541.9229,2.3547,2.3926,3.3867,4.433.8455,9.157.2837,13.58-1.5819,12.4539-3.5106,24.8745-5.9718,37.1978-.4016,2.0106-.6221,4.1139-2.1026,5.7418-4.2406-2.2466-8.4813-4.4931-12.7219-6.7397-1.4558-5.8599.8302-11.4231,1.4496-17.1066.7675-7.0422,1.8207-14.0596,3.0496-21.0438.7493-2.4027,1.4146-4.8354,2.328-7.1873l.1522.0538Z"/>
    <path class="cls-83" d="M320.9906,117.0945c.7202-1.1197,1.4404-2.2394,2.1592-3.3583.4221-.3874.8456-.7755,1.2691-1.1636,1.5175-.7865,2.6783-1.9248,3.4275-3.4691,1.1085-1.1229,2.2171-2.2459,3.3256-3.3688,3.5134-2.8727,3.406.5031,3.6861,2.3316.5321,3.4733-1.328,6.8155-.8824,10.3317-.1982,12.2019-1.6976,24.2826-3.4061,36.34-.5379,6.0666-3.8551,11.0367-6.4629,16.2937-.7743.6798-1.5828,1.1026-2.5386.3132-2.0433-4.6627.3386-9.174.801-13.666.7962-7.7341,1.7546-15.4727,2.7003-23.1993,1.0196-4.6613,1.0458-9.4312,1.0727-14.1964.2375,4.0024-.2368,7.9384-.6349,11.885-1.6522,15.954-5.1483,31.7273-4.5872,47.887.3068,1.6263.3832,3.2313-.4824,4.7372-.45.5975-1.0058.7164-1.664.3575-1.864-3.0185-5.6946-1.3124-7.9811-3.3158,3.725-9.0019,3.4187-18.7419,5.1375-28.1112,2.2256-12.1323,2.6281-24.5212,5.0607-36.6286Z"/>
    <path class="cls-42" d="M320.9906,117.0945c.3577,16.4182-3.2724,32.4258-5.0371,48.6251-.4665,4.282-1.31,8.5262-1.6881,12.8135-.2091,2.3724-1.1133,3.4577-3.473,3.3006-.2927-.1109-.5952-.1789-.9062-.2041.5726-10.6602,3.6176-20.9404,4.8387-31.5003.9647-8.3429,3.1588-16.541,2.9528-25.0209,2.2692-1.9929.1004-4.7018,1.1148-6.8977.7329-.372,1.4655-.7441,2.198-1.1161Z"/>
    <path class="cls-182" d="M302.9385,136.4123c-1.4793,12.8924-2.8646,25.7989-5.7728,38.4772-2.8519-.2028-3.0428-1.7121-2.6518-4.2501,1.8147-11.78,3.3838-23.5977,5.0409-35.402.715-1.1406-.7489-3.6281,2.1265-3.4332.3741.0119.7483.0222,1.1225.0308.9515,1.4991.7742,3.0314.1347,4.5773Z"/>
    <path class="cls-81" d="M294.9479,136.363c-.3163,10.5695-2.7454,20.8743-4.0233,31.324-.1409,1.1522.1325,3.7015-2.0459,3.3183-2.2089-.3886-.9871-2.4901-.8136-3.8174,1.1454-8.7624,2.3853-17.5124,3.5944-26.2665,1.522-1.2128-1.6811-5.8277,3.2884-4.5584Z"/>
    <path class="cls-35" d="M282.3588,132.9928c.3886-.0161.7772-.0321,1.1658-.0481,1.5151,1.3637,1.4966,3.6688,3.0806,4.9913.1213.2182.2344.4406.3474.6629-5.1912,2.3299-4.7935,7.3989-5.6095,11.7625-.9531,5.0967-1.5431,10.2612-3.4389,15.2605.7602-5.6438,1.4952-11.2912,2.2872-16.9305q.9833-7.0017-5.9612-5.2595c-.7228.1814-1.4052.5236-2.1071.7904-.353-.7376-.7053-1.4745-1.0576-2.2114.9559-.9452,2.1643-1.4594,3.4466-1.554,4.698-.3464,6.0858-4.0839,7.8467-7.4642Z"/>
    <path class="cls-15" d="M318.7735,185.1502c.3003-.0036.6006-.0078.901-.0128,1.2984-1.7896,1.2657-3.7699.8277-5.8104-.0038-1.0508.4419-1.9599.8773-2.8756.8298-2.1895,2.0121-4.2178,2.8849-6.3907,1.5395-1.57.0225-5.4132,3.9074-5.2322,1.478,2.6103-.1349,5.0602-.3725,7.5821-.8825,4.0289-.7819,8.1771-1.4691,12.234-.2899,1.7112-.3228,3.4569-2.5197,3.882-.8583.2067-1.7243.2449-2.6004.1433-.8976-.1347-1.664-.5474-2.355-1.1169-.0272-.8009-.0544-1.6018-.0816-2.4026Z"/>
    <path class="cls-34" d="M294.9479,136.363c-3.2615-.04-1.5668,3.4907-3.2895,4.5585.2385-4.4286-2.9576-1.9106-4.7057-2.3224,0-.0003.0336.0278.0336.0278,1.6346-3.3959,4.3036-6.107,6.1924-9.3363,1.7642-.0023,1.1852,2.6897,3.0172,2.582,1.4824-.3266,2.5795-2.0536,4.3654-1.1914.3737.3744.7473.7489,1.1205,1.1232-.7097,1.1443-1.419,2.2888-2.1276,3.4331-2.232-2.472-3.0474.845-4.6063,1.1255Z"/>
    <path class="cls-32" d="M267.6026,145.4531c.7507.7337,1.5014,1.4674,2.2516,2.2005-.7572,4.9251-1.5138,9.8508-2.2704,14.7766-1.4689-5.7497.9-11.3146.0188-16.9771Z"/>
    <path class="cls-54" d="M318.8551,187.5528c.6661-.038,1.3322-.076,1.9983-.114,1.2622,6.6299,1.2004,13.2424-.2569,19.8395-.4093.68-.9815.8642-1.7126.5556-.1165-5.6574-.233-11.3148-.3504-16.9721.1066-1.1029.2141-2.2059.3215-3.3089Z"/>
    <path class="cls-139" d="M253.9876,146.5318c.0204-.3495.0207-.6991.0005-1.0482,2.4926-1.5958,5.2797-1.1463,8.0022-1.1477-.023.3647-.031.7294-.0237,1.0943-2.4138,2.1447-5.3146.7686-7.979,1.1015Z"/>
    <path class="cls-49" d="M318.8839,207.8339c.3067.0059.6134.0066.9201.0022,3.1151,4.1468,4.3963,8.6017,2.293,13.625-.291-.0125-.5819-.0274-.8716-.0448-1.7521-4.3603-2.6194-8.8728-2.3415-13.5825Z"/>
    <path class="cls-40" d="M322.0971,221.4611c-.764-4.5416-1.528-9.0833-2.2925-13.625.3517-6.7991-.7148-13.6711,1.0499-20.3974.8254-.0072,1.652-.0144,2.4786-.0216.6295.7858,1.1589,1.6216,1.3301,2.6383.504,2.9669-.4826,5.8958-.2338,8.858-.0014,3.5805-.0016,7.1615.0004,10.7406.4305,4.6962.1638,9.4539,1.2092,14.0994.2842,2.5656.5683,5.1312.8522,7.6962-2.8517-2.721-1.6245-7.2323-4.3943-9.9885Z"/>
    <path class="cls-133" d="M325.6391,223.7534c-1.9194-4.3952-1.4277-9.173-2.1862-13.7524,1.6705-3.178-1.3905-7.2404,1.8947-10.1166.5664,7.9759-.9741,16.0489,1.1057,23.9552-.2733-.0126-.5446-.0414-.8142-.0862Z"/>
    <path class="cls-172" d="M147.2671,272.476c-.1825,1.8285-.7909,3.4432-2.3133,4.5993-.1894-1.6645.4373-3.117,1.1821-4.5388.3769-.0254.7539-.0456,1.1312-.0606Z"/>
    <path class="cls-84" d="M315.3236,122.7167c-.7443.3979-1.4886.7958-2.2328,1.1942-1.0684-2.4332.9753-2.8481,2.362-2.9688.7881-.0687-.0515,1.1397-.1293,1.7747Z"/>
    <path class="cls-94" d="M336.9147,101.2021c.3322,15.1746-1.0911,30.2685-2.0907,45.3819-.2625,3.2788-.8205,3.7639-3.1443,2.7335-.414-8.1678,1.1306-16.2206,1.4453-24.3489.3672-6.7426,1.0543-13.4668.865-20.2342-.0534-1.9104-.7421-4.59,2.9247-3.5324Z"/>
    <path class="cls-183" d="M341.4712,92.1092c.3755.0034.7501.0225,1.124.0573,1.1815.9706,1.4291,2.3203,1.5281,3.731-.0379,5.0585.3987,10.1292-.2734,15.1767-.8981,8.3713-.6639,16.8359-2.0039,25.1729-.146,1.9232-.5313,3.7626-1.9252,5.2301-.2665.1637-.5366.3246-.8067.4854-2.8121-6.7997.4289-13.5415.5036-20.3114.0609-5.5194.6479-11.1543.7307-16.7437.0637-4.3055.1577-8.5829,1.123-12.7981Z"/>
    <path class="cls-55" d="M347.13,138.5958c-1.3662,2.5317-3.8961,4.901-1.1209,8.0114-.0019.7577-.0038,1.515-.0058,2.2726-.7807.7563-1.5613,1.5123-2.3427,2.2689-.8527.482-1.0183,1.2915-1.0399,2.1698-2.417.3965-2.9042-2.2203-4.6102-2.938-.2925-.4067-.4605-.8621-.5182-1.3583-.193-1.5767,1.0844-3.3318-.5784-4.7339.7336-.7748,1.4673-1.5497,2.2005-2.3251-.0005-.0007.0183.0465.0183.0465.7155-.7106,1.2356-1.8718,2.5844-1.1217.4236,1.2127.4073,2.4412.1302,3.677.4484-1.7432.2099-3.4513-.2873-5.1481-.0491-.7982-.0293-1.591.1253-2.3798.16-.5211.4036-.9994.7152-1.4457.9324-1.0075,1.8757-2.0023,3.462-1.5945.348,1.5534-.4456,3.4208,1.2674,4.5988Z"/>
    <path class="cls-86" d="M336.9147,101.2021c-3.2257.4106-2.0865,2.9285-2.2509,4.7572-.5732,6.3772,1.1124,12.883-1.0914,19.1701-1.4791-2.116.2051-4.7345-1.0946-6.879.3292-3.4718.6858-6.9414.9753-10.4166.1326-1.5916.1406-3.2023-2.2802-2.0991.2016-2.4584,2.9886-4.0077,2.3796-6.7513,1.1223-.4052,2.2442-.8112,3.366-1.2173-.0013,1.1453-.0026,2.2906-.0038,3.436Z"/>
    <path class="cls-156" d="M332.4061,150.284c.8053-1.2333,1.6106-2.4665,2.4169-3.6999.6768-.3908,1.3527-.7815,2.0285-1.1723.407.339.6512.773.7578,1.2901.0099.5234-.088,1.025-.3011,1.5037-.9514,1.8696-1.7718,3.9209-4.5312,3.3503-.3416-.2059-.5104-.4638-.5065-.7719.0043-.3333.0494-.4999.1357-.4999Z"/>
    <path class="cls-37" d="M337.0828,146.6913c-.0766-.4262-.1533-.8525-.2306-1.2791.026-.3745.0469-.7489.0619-1.1237,3.3876.7428,2.5453,2.6127,1.2302,4.6086-.9654-.4416-.4369-1.6005-1.0614-2.2058Z"/>
    <path class="cls-50" d="M348.3459,127.2207c-.388.3835-.7759.7671-1.1634,1.15.0004-15.1885.0004-30.3764.0004-45.5644l2.1985.0409v26.2719c-1.4752,4.0843.3464,8.4412-1.0385,12.5329.001,1.8562.002,3.7124.003,5.5687Z"/>
    <path class="cls-111" d="M342.6406,95.587c-.0151-1.1406-.0302-2.2813-.0454-3.4212,1.7373-.7358.419-3.3378,3.2214-4.2391-.1328,8.0534,1.3804,15.7951-.887,23.5259-2.3321-2.6472-.4622-6.0053-1.5045-8.8686-.7371-2.2778.4639-4.7743-.7846-6.997Z"/>
    <path class="cls-122" d="M344.9712,117.0719c2.2474,4.0308.4659,8.4034,1.069,12.5738-.1707,1.6841.0096,3.6797-2.7393,3.0793-1.1331-1.6657-.5809-3.5027-.5453-5.2881.7264-2.3221.5427-4.7348.6857-7.1182.1341-1.2597.4186-2.4493,1.5299-3.2467Z"/>
    <path class="cls-97" d="M344.9712,117.0719c-.053,1.1258-.1059,2.2515-.1588,3.3773-.695.3498-1.2493.1955-1.6641-.462-1.0897-2.9435.563-5.8743.0423-8.8165.3271-2.9292-.6954-5.9516.6119-8.8123,2.2049,2.8049.5144,6.0913,1.1266,9.0937.0144,1.8737.0282,3.7468.0421,5.6199Z"/>
    <path class="cls-59" d="M348.3429,121.652c.4592-4.1683-1.2263-8.5141,1.0388-12.533-.4521,4.1689,1.2524,8.5162-1.0388,12.533Z"/>
    <path class="cls-18" d="M343.7586,132.929c.7604-1.095,1.5207-2.19,2.2813-3.2842.3458-.0387.692-.0722,1.038-.0995-.4048,1.4843-.8089,2.9687-1.2142,4.4524-1.1007.7802-2.2003,1.5611-3.2998,2.342-.5763-.5916-.6797-1.2954-.4955-2.0701.3397-.7276.8904-1.1913,1.6902-1.3406Z"/>
    <path class="cls-90" d="M282.3588,132.9928c-.0278,7.2791-2.0151,8.866-11.2934,9.0184.0879-6.7002,1.2089-7.5954,11.2934-9.0184Z"/>
    <path class="cls-161" d="M293.676,129.4645c-.6536,4.2031-2.8282,7.2977-6.6901,9.1624-4.6983.2612-3.1566-3.2716-3.4611-5.6821,1.1495-1.1358,2.2993-2.2716,3.449-3.4074.1672-.2023.3344-.4045.4983-.6109,2.0926-.9229,3.9799-2.7028,6.5678-1.5935.3626.7924.315,1.5158-.3639,2.1315Z"/>
    <path class="cls-137" d="M283.4847,128.3585c-3.0226,4.3999-7.0195,4.258-10.7137,4.8078,2.3968-3.5139,6.2764-3.64,10.7137-4.8078Z"/>
    <path class="cls-11" d="M288.1174,125.0047c.9022-.011,1.7258-.1868,2.219-1.0557,1.6145-.92,3.1106-1.3344,3.9785.9268.0604.549-.076,1.0524-.3781,1.5111-2.3153,1.0907-4.6415,2.1706-7.0002,3.179,0,0,.0368-.0283.037-.0284-5.326-2.9482,1.415-2.8576,1.1438-4.5328Z"/>
    <path class="cls-73" d="M327.8463,109.1036c.27,2.5491-.9139,3.6641-3.4273,3.4686.6969-1.5951,1.8699-2.7214,3.4273-3.4686Z"/>
    <path class="cls-150" d="M293.7732,126.1572c-.086-2.3809-1.7579-2.3003-3.4365-2.209,1.0842-1.5435,2.7244-2.0812,4.4547-2.4548.1655,1.4835-.3751,3.7078,2.4869,2.3728.5566-.2823,1.009-.1646,1.3597.3515.1451,2.2216.3201,4.4576-2.2332,5.6054-1.7369-.6029-1.3454-2.7361-2.6316-3.6659Z"/>
    <path class="cls-71" d="M296.1155,129.5972c.7705-1.9092,1.541-3.8184,2.3116-5.7275.7229-.5878,1.4453-.6801,2.1672.0017-.011,2.27-.0219,4.54-.0329,6.8099-1.5368.6973-2.5261,2.4853-4.5231,2.2654-.958-1.1391-.9657-2.2564.0772-3.3495Z"/>
    <path class="cls-10" d="M300.5943,123.8713c-.7234-.0005-1.4467-.001-2.1686-.0016-.3822-.0012-.7658-.0022-1.1484-.0034-.0025-1.1068-.0061-2.2135-.0086-3.3195,1.446-.3768,2.8911-.7544,4.3352-1.1312-.3372,1.4857-.6734,2.9707-1.0096,4.4557Z"/>
    <path class="cls-34" d="M302.9385,136.4123c-.0445-1.5259-.0891-3.0517-.1342-4.5774.0623-.9344.2635-1.7969,1.1885-2.2834-.2874,2.2968.7675,4.7994-1.0543,6.8608Z"/>
    <path class="cls-132" d="M323.3814,189.7511c-.0164-.778-.0327-1.5559-.0487-2.334,4.102-2.3108.5964-6.4156,2.194-9.4547.7643-1.4539-.52-3.7121,1.0117-5.293,1.8069-.7198,1.0379-2.702,1.9034-3.8893.6483-.8622.9877-2.0989,2.4318-1.9873,1.9309,1.1956,1.4308,3.0782,1.3768,4.8356-.4223,1.1152-.2061,2.431-1.0731,3.4056-1.7121,4.3647-5.0372,8.3325-3.3375,13.5368.0078,1.2489.1257,2.5295-1.0014,3.4495-1.5038.7261-.1032,2.5379-1.2697,3.3902l.0386-.0247c-3.7063-.7094-.51-4.1404-2.226-5.6346Z"/>
    <path class="cls-131" d="M325.3475,199.8844c-2.3739,3.0465.4634,7.0673-1.8948,10.1166-.0342-3.7302-.0686-7.4604-.1029-11.1906.7114-.7066,1.4065-.7127,2.0841.048.0605.3495.0317.6915-.0864,1.026Z"/>
    <path class="cls-140" d="M325.4339,198.8584c-.6948-.0161-1.3896-.0322-2.0842-.0481.0104-3.0198.0205-6.0397.0313-9.0594,2.1018,1.3423-.0083,4.345,2.2264,5.6346-.0578,1.1578-.1157,2.3154-.1735,3.4729Z"/>
    <path class="cls-140" d="M325.5688,195.4105c.0022-1.2893-.0177-2.5793.0166-3.8678.0153-.5749.2956-1.014.8987-.5417.2379.1863.2421.6705.3535,1.0192-.2436,1.197.0228,2.5848-1.2688,3.3903Z"/>
    <path class="cls-154" d="M331.1773,175.034c.0755-1.1559.151-2.3118.2265-3.4676.7388-.8294.0793-3.0548,2.3528-2.3519-.1094,1.1284-.2187,2.2567-.3288,3.3845-.7506.8113-1.5005,1.6232-2.2505,2.435Z"/>
    <path class="cls-44" d="M333.7566,169.2145c-.785.784-1.57,1.568-2.3539,2.3519-.4358-1.5114.5134-3.4207-1.3033-4.536-.8059-4.5205,3.331-8.4456,1.5651-13.0815-.0938-.5433-.0954-1.0855-.0238-1.6305.1523-.5445.4641-.9752.9297-1.2947,2.5248.2736,2.8353-2.2576,4.2701-3.3647,1.0603,1.055.3634,3.0916,2.1148,3.7606,1.2407,1.1783,1.5377,2.6591,1.377,4.2857-.024.7954-.048,1.5909-.0727,2.3881-2.2917-.0701-2.2959,1.498-2.2357,3.1123-3.0951.1707-.5677-2.7521-1.8799-3.2979.2011,1.383.6546,3.0061-.3482,4.5428,1.1046,1.5344.0446,3.0626-.0132,4.5942-.6753.7236-1.3506,1.4467-2.0259,2.1698Z"/>
    <path class="cls-37" d="M340.3322,155.7053l-2.3534-3.5741c-.5371-.7695-.5765-1.5091.1323-2.204,2.8739-.6876,3.1286,2.0993,4.5094,3.392-.3817,1.1595-1.2016,1.9004-2.2884,2.3861Z"/>
    <path class="cls-2" d="M335.7957,162.4505v-4.6463c1.9952.5579.6246,2.9082,2.2285,3.4029.0152.4064.0308.8141.0464,1.2215-.7582.0071-1.5166.0145-2.2749.022Z"/>
    <path class="cls-129" d="M322.1263,177.3034c-.4145.7501-.829,1.5003-1.2435,2.2504-.151.4234-.4459.7005-.8658.8508-1.7856-5.0676-.1945-10.1991.2126-15.1769.9131-11.1662,2.8014-22.2527,4.2926-33.3717,2.1538-.0388,1.6111,1.1813,1.1134,2.3804.2133,11.5486-2.4085,22.7889-3.7992,34.1612-.1487,1.2157.0501,2.1967.369,3.2606,1.0658,1.897.7546,3.7748-.079,5.6452Z"/>
    <path class="cls-76" d="M332.5704,151.0237c-.0707.4018-.1415.8036-.2123,1.2055-.9049,1.3182-.3816,3.9512-3.2192,3.4903,1.1225-12.4893,3.1518-24.8979,3.338-37.4698,1.9333,2.044.6475,4.5982,1.0949,6.8785.7669,8.4378-1.4118,16.7381-1.166,25.1532.0589.2483.1137.4949.1646.7423Z"/>
    <path class="cls-141" d="M329.139,155.7195c1.0732-1.1634,2.1464-2.3268,3.2194-3.4903.0473.4071.0949.8143.1425,1.2215.7155,2.5296-.513,4.641-1.4528,6.8182-.9594,1.5651-1.4952,3.4441-3.2341,4.4436-2.1492,1.2859-1.483,4.2936-3.4769,5.6745-.247.0181-.494.0361-.7411.0542,1.8477-4.9072,3.6954-9.8145,5.5431-14.7217Z"/>
    <path class="cls-129" d="M325.6356,134.2364c-.0816-.9293-.2115-1.836-1.1141-2.3809.4738-4.052.9468-8.1045,1.4198-12.157.4067,4.8546,1.8282,9.7314-.3057,14.5379Z"/>
    <path class="cls-19" d="M323.5959,170.4412c.2483-.0067.4958-.0248.7418-.0542-.0052,2.5383-.6112,4.8848-2.2111,6.9154.0257-1.8813.0518-3.7637.0783-5.6451.464-.4047.9275-.8104,1.391-1.2161Z"/>
    <path class="cls-169" d="M320.017,180.4046c.2896-.2842.5792-.5685.8673-.8517,1.4788,2.2681.9649,4.1052-1.209,5.5844.1133-1.5775.2276-3.1551.3417-4.7327Z"/>
    <path class="cls-157" d="M327.8139,164.7125c.1955-1.8051.9029-3.363,2.2354-4.6191,2.611,3.3088-1.3514,5.984-.8776,9.0869-.6274,1.3505.8174,4.2601-2.6316,3.489.4236-2.6522.8487-5.3045,1.2738-7.9568Z"/>
    <path class="cls-57" d="M296.1155,129.5972c-.0257,1.1166-.0515,2.2331-.0772,3.3496-.6518.9079-1.3382,2.7013-2.1904.2494-.3918-1.1273-.1338-2.48-.1711-3.7311-.0187-.6782-.0367-1.3558-.0547-2.0335-.3159-.3242-.401-.6242-.2559-.9006.1387-.2641.2688-.3964.3909-.3964,0,0,.0161.0223.0161.0224,2.4026.0446,2.2228,1.844,2.3423,3.4401Z"/>
    <path class="cls-165" d="M342.6176,134.2007c-.0177.713-.0355,1.4259-.0535,2.1389-.0002,0,.021-.0102.021-.0102-.5934.6546-.9137,1.8016-2.1953,1.2154.7429-8.7178,1.4858-17.4355,2.2287-26.1533.3475-.5226.6993-.5013,1.0548-.0083.0144,3.0305.0288,6.0609.0432,9.0914.0185,1.5107.031,3.0214-.0166,4.5345-1.0692,2.9822.0783,6.2227-1.0823,9.1916Z"/>
    <path class="cls-167" d="M343.6734,111.3832c-.3516.0076-.7034.0104-1.055.0084.0073-5.2689.0144-10.5377.0219-15.8056,2.0349,1.9759.6533,4.5354,1.1616,6.772-.0424,3.0087-.0855,6.017-.1285,9.0253Z"/>
    <path class="cls-125" d="M340.3899,137.5448c.7318-.4051,1.4636-.8102,2.1954-1.2153.0093.6901.0186,1.3802.028,2.0703-.7048.6565-.2733,1.9409-1.3304,2.4027-.7164.4024-1.4329.8048-2.1497,1.2072.4186-1.4883.8377-2.9766,1.2567-4.4649Z"/>
    <path class="cls-188" d="M341.2828,140.8026c.4434-.7995.8868-1.599,1.3304-2.4006,0,1.9677,0,3.9375,0,6.2569-1.7745-1.2565-.8906-2.7251-1.3304-3.8562Z"/>
    <path class="cls-119" d="M338.1111,149.9272c-.0436.7354-.0872,1.4708-.1315,2.2051-1.7713-1.1385-.7873-2.9751-1.1386-4.4731.0617-.3279.1419-.651.241-.9688.354.7357.7073,1.4707,1.0614,2.2061-.0281.3433-.0392.6867-.0323,1.0307Z"/>
    <path class="cls-97" d="M342.6176,134.2007c.0243-3.4137.0487-6.8273.073-10.241,2.757.3507,1.3983,2.0326,1.0933,3.3737-.0086,1.8654-.0172,3.7308-.0255,5.5959-.3801.4236-.7604.8475-1.1408,1.2714Z"/>
    <path class="cls-183" d="M343.7839,127.3334c-.1356-1.1995.2094-2.5545-1.0941-3.3747-.0498-1.2761-.2825-2.6068,1.0269-3.4842.3656,0,.7314-.0084,1.0962-.0251-.2119,2.3141.8552,4.8191-1.029,6.884Z"/>
    <path class="cls-146" d="M293.7571,126.1347c-.0444.4316-.0887.8631-.1341,1.2958-2.1946.8213-4.1338,2.4367-6.6862,2.1354,1.8786-1.9268,4.2273-2.9213,6.8203-3.4312Z"/>
    <path class="cls-5" d="M329.1716,169.1803c.2928-3.0284.5856-6.0568.878-9.086.8162-2.2153,1.6328-4.4297,2.4503-6.6439,2.736,5.1506-.7969,9.1947-2.4004,13.5797-.3094.717-.6187,1.4336-.9279,2.1502Z"/>
  </g>
  <g>
    <path class="cls-163" d="M1659.7977,452.4042c-16.1244,18.9847-35.8757,28.9483-59.9678,28.3618-25.4307-.619-46.5408-9.5449-57.6069-34.5551-3.2846-7.4237-4.846-15.3269-5.6481-23.6772-2.1711.5589-2.3431,2.201-2.9824,3.3626-19.1184,34.7364-49.3653,51.732-88.0958,55.2223-14.2583,1.2849-28.3211.3578-42.0273-3.9977-30.8537-9.8046-49.3437-32.9778-50.7859-66.2675-1.1939-27.5572,5.1601-53.7136,21.0628-76.7567,16.9859-24.6125,41.6568-36.9991,70.3522-42.481,15.9504-3.0471,31.9344-3.3211,47.9182-.284,34.9571,6.6422,53.2422,26.0362,57.9383,61.4151,1.3783-.1872,1.6276-1.4226,2.1508-2.3498,18.6724-33.095,47.6551-51.4201,84.4973-57.4775,35.9423-5.9094,70.7377-.6367,104.2641,13.3804.6844.2862,1.3304.6637,2.516,1.2617-2.5856,12.2737-5.1429,24.5713-7.7704,36.8539-5.4449,25.4551-10.9291,50.9019-16.3873,76.3542-.1973.9201-.3094,1.86-.4307,2.7946-1.7961,13.8203.9167,17.3885,15.0108,19.1416,1.3522,11.9099,4.1641,23.5093,13.6121,33.4542-24.034,4.18-47.1291,6.9625-70.1655.2131-12.4857-3.6582-17.1447-10.5254-17.4547-23.969ZM1544.5051,366.3483h-55.125c-5.3124-17.1469-17.5802-23.9789-34.6407-19.7477-25.8872,6.4203-41.9255,34.425-34.4045,60.0739,3.2137,10.9601,11.4655,18.0613,22.8216,19.0731,12.0831,1.0767,23.7116-2.2957,30.08-12.2789,6.8354-10.7151,15.4292-11.7062,26.0356-10.7507,4.1307.3721,8.3231.0609,12.4875.0609h24.9849c.6776-12.7237,3.7284-24.3376,7.7607-36.4305ZM1673.7669,345.0302c-10.2456-2.8906-19.9132-3.7796-29.7267-1.9363-31.7761,5.9684-45.2648,42.6854-41.9381,62.9083,1.4521,8.8268,6.4824,14.9129,15.3812,16.8567,10.4938,2.2923,20.2631.5505,28.6515-6.6987,7.9857-6.9013,12.9022-15.8124,15.741-25.7009,4.2606-14.8416,7.8561-29.874,11.8911-45.4292Z"/>
    <path class="cls-163" d="M795.9653,477.7151h-63.5704c8.7192-45.879,20.0265-90.9515,28.4909-137.146h-68.6858c-4.7441,22.9248-9.8127,45.5203-13.9749,68.2812-2.2948,12.5489,4.5111,20.5154,17.2702,22.4095,12.4545,1.8489,24.3526-1.0956,37.0134-4.3907-2.3463,11.6418-5.6632,22.751-6.5761,34.0541-1.0194,12.6213-7.0211,17.2682-19.0251,18.8739-21.2748,2.8458-42.366,6.0741-63.3785-.9294-18.7926-6.2635-28.8561-19.5742-31.301-39.0681-2.2679-18.082,2.8041-35.2191,6.4061-52.5474,3.184-15.3175,6.5612-30.5948,9.9848-46.5018-10.4655-1.4451-20.6293-2.8484-31.3967-4.3352,2.9178-13.8923,5.7692-27.468,8.6544-41.2051,20.8956-1.4418,36.4401-10.8464,44.9961-30.1828,2.8075-6.3447,4.6383-13.1196,6.944-19.6879.8051-2.2934,1.6948-4.5571,2.5094-6.7368h53.6093c-4.0216,18.8573-7.9744,37.3921-12.0515,56.5095,22.7731-1.091,45.0648,1.6852,67.2347-2.7904,12.8231-2.5887,25.9287-2.8961,38.8307.3357,13.4506,3.3693,19.0123,9.8685,20.4598,24.3587,15.1879-20.5999,35.7059-28.9519,60.2431-27.616,11.489.6255,22.0212,4.5921,31.2558,12.6272-15.2033,12.4218-26.4289,27.3333-33.9793,45.1817-.8562-.0807-1.6094-.0237-2.2793-.2331-32.6326-10.2003-61.9235,7.3415-68.9064,41.1483-6.1399,29.7252-12.4465,59.416-18.7778,89.5908Z"/>
    <path class="cls-163" d="M1110.7846,570.7759h-60.1683c2.1357-10.3495,4.1613-20.4108,6.2919-30.4497,11.551-54.4245,24.0224-108.6748,34.3507-163.3295,5.9046-31.2455-6.4564-56.9285-31.7834-76.1974-1.1905-.9058-2.4758-1.6871-4.227-2.8713,4.5024-2.2647,9.0941-2.6177,13.4641-3.59,4.4176-.9829,8.9095-1.7193,13.4061-2.2463,16.9981-1.9922,33.883-2.3501,50.3088,3.7324,10.9141,4.0416,19.3397,10.8367,24.7495,21.9674,7.9125-9.5906,17.1075-17.1732,28.2064-22.4075,27.1959-12.8256,61.6654-6.3468,79.2982,15.1726,9.4236,11.5008,14.0287,25.0962,14.9753,39.6252,3.2146,49.3361-13.6169,89.9036-55.4261,117.7709-20.1522,13.4322-43.1148,16.6178-66.8231,9.8129-10.328-2.9644-18.1244-9.0943-22.2508-21.0337-8.2887,38.7849-16.2938,76.2422-24.3723,114.044ZM1217.8991,372.2902c0-2.2655.1714-4.5462-.0286-6.7939-1.0974-12.3441-9.1571-19.97-21.495-20.4-13.7365-.4789-24.5927,5.055-32.4853,16.1453-9.3497,13.1376-12.8847,28.0436-11.6543,43.9235,1.0874,14.0355,9.5755,21.8881,22.1866,21.2161,10.3392-.5509,19.5085-4.1721,26.9656-11.5393,11.8499-11.7069,16.2956-26.3372,16.511-42.5517Z"/>
    <path class="cls-163" d="M1081.626,386.8072c-.6537,16.6914-10.3548,45.1288-34.8928,67.0357-21.5709,19.2579-47.571,27.0904-75.9513,28.1767-13.3046.5093-26.402-.7757-39.1046-5.161-27.7733-9.5881-44.8862-28.8294-48.4376-57.8227-4.361-35.6035,3.4456-68.4934,28.651-95.499,18.1301-19.425,41.199-29.5042,67.2643-33.1165,17.2652-2.3926,34.3761-1.7167,51.0167,3.8395,34.9821,11.6802,53.2012,38.8834,51.4543,92.5473ZM1017.9192,378.3878c.0893-19.1382-7.5607-29.6448-21.9705-31.9975-6.3658-1.0394-12.7846-.5683-19.029,1.4366-27.3616,8.7852-36.1642,38.4938-30.9357,58.6835,2.3701,9.1516,8.5958,14.9886,17.5623,17.5354,19.4599,5.5272,40.0227-4.0131,48.7388-22.3682,3.8635-8.1362,5.4368-16.7884,5.634-23.2898Z"/>
    <path class="cls-163" d="M1833.7541,431.2157c-2.857,16.5364-5.579,32.2926-8.3734,48.4676-17.1567,2.9786-34.3941,4.8835-51.6481,1.0154-20.6153-4.6217-32.0109-18.9131-33.4194-40.2156-1.2306-18.614,3.4253-36.3806,7.2085-54.2638,12.6901-59.9855,25.5561-119.9338,38.3644-179.8943.3876-1.8137.8829-3.6044,1.3664-5.5619h63.8452c-2.3388,11.0522-4.6088,21.8288-6.9007,32.6007-12.3691,58.1311-24.8442,116.2399-37.0621,174.4026-4.3489,20.7036,2.5619,27.5807,23.45,24.1572.738-.121,1.4626-.3237,3.1692-.708Z"/>
    <path class="cls-163" d="M1665.9397,559.1092c9.3402-33.6557,37.0391-45.5345,65.3663-41.4285,28.7716,4.1704,46.9722,27.1834,46.7412,58.2392-.2056,27.6547-19.1895,50.1321-45.5334,53.9122-34.9615,5.0166-56.3657-9.5197-67.8103-46.2035h-83.2528c.1094,8.5736,6.1461,16.5607,15.9165,19.9419,15.9457,5.5184,30.8424,2.8332,45.1902-7.1957,5.1742,5.8724,10.4934,11.9093,15.9622,18.1159-9.307,9.3407-22.0197,14.2969-35.9535,16.0099-15.8859,1.953-31.4124.3767-45.3686-8.3662-17.9497-11.2449-24.3888-28.5743-24.7954-48.7341-.5876-29.1418,16.8122-50.9349,45.3784-56.4028,13.3975-2.5645,26.7993-1.6213,39.4736,3.8879,14.5668,6.3318,22.953,17.9076,26.8392,33.0208.4594,1.7866.1676,3.8376,1.8464,5.203ZM1750.6376,574.6652c.2288-14.131-7.6541-26.7932-19.3553-31.0907-19.8686-7.2971-39.0038,6.9906-39.563,29.5404-.3885,15.6672,8.6482,28.6617,22.0448,31.6998,20.2391,4.5899,36.5267-8.7277,36.8735-30.1496ZM1639.0443,560.5233c-1.2686-12.0891-10.6455-19.817-24.5359-20.407-17.4203-.74-29.9517,7.0723-32.6563,20.407h57.1923Z"/>
    <path class="cls-163" d="M1195.9244,612.7255c4.6532-6.7467,8.9329-12.9521,13.4183-19.4553,10.9364,9.3198,23.4896,14.2627,37.6556,15.0245,4.4331.2384,8.6753-.642,12.5734-2.7622,4.4316-2.4103,7.5951-5.8498,7.0312-11.276-.5674-5.4613-4.8373-7.6237-9.3985-8.4446-8.54-1.537-17.2202-2.2817-25.7844-3.702-6.7565-1.1205-13.0592-3.68-18.767-7.5404-16.218-10.9685-17.2783-34.8383-2.2059-47.3827,6.4411-5.3607,13.9168-8.4019,22.0035-9.7549,18.1953-3.0441,35.7514-1.7795,52.094,9.507.1975-2.6149.3575-4.7325.5477-7.2521h19.7347v-28.2856c9.3213-1.0053,18.0722-1.9492,27.3347-2.9482v30.8186h29.8569v23.4574h-29.6221v14.8934c0,10.4022-.0183,20.8044.0047,31.2064.0286,12.865,7.443,18.5635,19.9437,15.3214,2.1806-.5656,4.3154-1.3062,7.0263-2.1359,1.2668,3.7492,2.5318,7.4235,3.7488,11.1135,1.236,3.7482,2.4245,7.512,3.6258,11.2438-18.6981,11.0465-46.6032,5.5621-56.1737-10.9848-4.4044-7.6149-5.4466-15.9941-5.4477-24.5928-.0017-13.2391.0214-26.4783-.0258-39.7172-.0065-1.8458.4739-3.7713-.703-5.9667h-19.2357c-.1678-2.4187-.3077-4.4355-.5186-7.4769-3.9259,4.4742-7.3939,8.4268-11.2003,12.7649-9.3183-8.8453-20.6729-10.4491-32.7017-9.4066-8.468.7339-13.6623,4.5178-13.9308,9.9234-.2841,5.7188,3.8469,9.6485,12.6795,11.2553,8.9106,1.6209,18.0734,1.3899,26.9348,3.6479,17.4206,4.439,26.6959,14.5502,27.3502,30.1777.6715,16.0375-8.5071,29.7885-24.8266,34.4704-26.6931,7.6577-51.5543,4.7283-73.022-15.7408Z"/>
    <path class="cls-163" d="M1328.8897,477.6269h-64.8305c12.788-60.1052,25.5027-119.8662,38.2758-179.9016h64.8257c-12.78,60.0761-25.5167,119.9473-38.2709,179.9016Z"/>
    <path class="cls-163" d="M1450.7257,596.423c5.76,5.8162,11.2025,11.312,16.8947,17.0598-4.0422,4.8776-9.4387,8.1621-15.227,10.8187-16.9977,7.8016-34.7128,9.1521-52.5478,4.0664-21.4453-6.1151-34.2043-20.6926-37.8073-42.7221-3.5163-21.4999.2063-41.1793,17.2976-56.2724,21.5161-19.0005,61.4017-18.1041,80.6501,1.3947,9.5307,9.6547,13.1734,21.8089,14.3134,34.8484.4892,5.5959.0819,11.27.0819,17.4799h-85.1639c.9672,8.8011,5.2696,14.7498,12.2457,18.347,15.6288,8.0589,30.9357,5.9813,45.7479-2.5852.6492-.3755,1.2004-.9166,1.8156-1.3544.4432-.3152.9175-.5867,1.6991-1.0807ZM1447.4278,560.5538c-1.601-13.0793-11.5931-20.4366-27.1925-20.5256-15.6825-.0894-28.127,8.4161-29.8023,20.5256h56.9948Z"/>
    <path class="cls-163" d="M1505.2389,628.2069h-27.0182v-108.7159h24.9239c.6459,3.462,1.2933,6.9323,2.1546,11.5491,8.3099-12.3603,19.8983-15.5214,32.9956-14.7208,9.6257.5883,18.3642,3.6012,25.8327,10.3555-4.1023,7.9415-8.0455,15.5755-12.2714,23.7566-6.055-5.0093-12.7203-7.3434-20.3345-7.1307-16.0908.4497-26.0902,10.2327-26.2442,26.3734-.1678,17.5685-.0383,35.1397-.0384,52.7098v5.823Z"/>
    <path class="cls-163" d="M1352.2327,210.7762c18.0211-.1853,30.2856,9.2746,31.4311,24.2436,1.7344,22.6637-11.1921,39.6567-33.5326,43.9234-6.1414,1.1729-12.3313,1.6019-18.5853.5345-18.9289-3.2307-27.447-15.7321-23.5223-34.6744,4.1857-20.2027,21.8482-33.7971,44.2092-34.027Z"/>
  </g>
</svg>